<svg width="40" height="32" viewBox="0 0 40 32" fill="none" xmlns="http://www.w3.org/2000/svg">
<path d="M31.5951 0.799316C31.4684 0.799316 31.2854 0.827473 31.0531 0.876752C27.3994 2.05943 15.5656 0.693719 7.74437 2.34103C3.60498 3.16468 0.620117 4.86126 0.620117 8.23332C0.620117 10.0355 2.3167 11.3238 3.57682 11.3238C3.85841 11.3238 4.04145 11.1689 4.04145 10.9366C4.04145 10.5776 3.34451 10.5001 2.78133 10.1411C2.00695 9.62719 1.54937 8.85282 1.54937 8.13476C1.54937 5.94539 4.30192 4.76271 8.13859 4.09393C14.8053 2.88309 24.7877 3.14356 29.7014 2.08759C30.9123 1.82712 32.0175 1.44697 32.0175 1.03163C32.0175 0.876753 31.8908 0.799316 31.6092 0.799316H31.5951Z" fill="#455833"/>
<path d="M26.245 5.40332C22.9011 5.40332 19.5291 6.38185 16.6991 8.02916C14.8969 9.05696 13.3552 10.3452 12.1936 11.8658C12.1162 11.9433 12.0669 12.0489 11.9895 12.1263C11.3489 13.0274 10.7294 13.9285 10.1662 14.7521C6.38583 20.2291 1.88037 27.2055 1.88037 28.5149C1.88037 28.7754 2.06341 28.9795 2.49987 28.9795C3.60512 28.9795 4.58364 28.001 5.09755 27.1281C6.40695 24.812 8.03313 21.799 9.98315 18.4832C10.2436 21.6511 12.8413 24.0658 16.9807 24.995C15.8262 26.4874 14.6153 27.7757 13.4045 28.6487C11.912 28.1629 10.5463 27.7968 9.34253 27.7968C8.13873 27.7968 6.97717 28.4656 6.97717 29.4723C6.97717 30.6057 8.31472 31.1196 9.62412 31.1196C11.2222 31.1196 12.7357 30.6057 14.2563 29.6765C16.5724 30.4227 19.2968 31.1971 22.2324 31.1971C33.1651 31.1971 39.4939 22.9887 39.4939 15.9137C39.4939 9.38079 33.6509 5.4174 26.245 5.4174V5.40332ZM9.44813 30.1059C8.51888 30.1059 7.82898 29.768 7.82898 29.3104C7.82898 28.7472 8.42032 28.4867 9.50445 28.4867C10.2999 28.4867 11.3841 28.7683 12.616 29.1837C11.6093 29.775 10.5604 30.1129 9.44813 30.1129V30.1059ZM21.9719 30.4649C19.4024 30.4649 17.0863 29.8243 15.0236 29.1766C16.4105 28.1488 17.8043 26.8324 19.1419 25.2907C19.684 25.3188 20.1979 25.34 20.761 25.34C26.8293 25.34 30.483 21.6863 30.483 20.8627C30.483 20.7078 30.3774 20.6304 30.2225 20.6304C30.0958 20.6304 29.9409 20.6796 29.786 20.8345C27.1391 23.7419 23.2742 24.5937 20.8103 24.5937C20.4513 24.5937 20.1134 24.5937 19.7544 24.5656C21.1201 22.9183 22.4788 21.1161 23.8726 19.1661C26.1887 15.8715 29.251 11.8588 29.251 11.2393C29.251 10.9788 29.0469 10.8028 28.8145 10.8028C27.2447 10.8028 24.3865 14.6113 21.5847 18.5747C20.1697 20.5811 18.8814 22.5381 17.572 24.2347C14.1014 23.3336 11.912 21.0175 11.912 18.0327C11.912 16.2094 12.426 14.5057 13.327 12.9922C13.4819 12.7317 13.665 12.4501 13.8409 12.1967C16.4879 8.46562 21.458 6.10026 26.1887 6.10026C32.5667 6.10026 37.1004 9.83134 37.1004 15.8785C37.1004 22.8479 32.1866 30.4649 21.9719 30.4649Z" fill="#455833"/>
</svg>
