<svg width="45" height="48" viewBox="0 0 45 48" fill="none" xmlns="http://www.w3.org/2000/svg">
<g clip-path="url(#clip0_302_198)">
<path d="M45.1166 44.3393C43.9467 42.4748 42.8759 40.5441 41.7762 38.6383C40.3747 36.2156 38.9815 33.7847 37.5883 31.358C37.2865 30.8288 36.9806 30.2996 36.6788 29.7705C36.6126 29.6754 36.5176 29.6258 36.4059 29.6134C35.3931 29.6382 34.3843 29.6588 33.3756 29.6836C31.7715 29.7209 30.1675 29.7581 28.5634 29.7911C29.5267 28.4971 30.4072 27.1453 31.201 25.7396C31.8253 24.6358 32.3875 23.5031 32.9043 22.3455C34.8391 17.9922 36.0132 12.841 34.1156 8.2645C33.3012 6.30077 31.9824 4.56442 30.1551 3.44819C28.4642 2.41878 26.4343 1.94335 24.4664 2.00536C22.3994 2.07151 20.3695 2.67923 18.6414 3.8244C16.8141 5.03158 15.3175 6.69351 14.255 8.60764C13.176 10.5466 12.5435 12.6881 12.3698 14.8998C12.1755 17.3514 12.5931 19.8402 13.3621 22.1677C14.2964 24.9914 15.7351 27.5959 17.4094 30.0475C16.5991 30.064 15.7929 30.0847 14.9826 30.1012C13.1512 30.1425 11.3198 30.1839 9.4842 30.2252C9.43459 30.2252 9.38498 30.2252 9.33537 30.2252C8.93022 30.2459 8.66563 30.5229 8.46306 30.8495C8.38864 30.9694 8.31836 31.0893 8.24808 31.2092C7.87187 31.8293 7.49566 32.4535 7.11945 33.0737C5.8792 35.1201 4.64308 37.1624 3.3987 39.2046C2.39409 40.8624 1.38949 42.5203 0.368347 44.1698C0.310468 44.2607 0.25259 44.3558 0.194712 44.4468C0.037613 44.6948 -0.22284 45.654 0.368347 45.654C2.49745 45.654 4.62654 45.6705 6.75564 45.687C9.93069 45.7118 13.1057 45.7408 16.2808 45.7697C19.8362 45.8028 23.3916 45.8359 26.9469 45.8689C30.2212 45.8979 33.4996 45.9309 36.7739 45.9558C39.0559 45.9723 41.338 45.993 43.6201 45.9971C43.802 45.9971 43.9839 45.9971 44.1616 45.9971C44.8396 45.9971 45.4928 44.9305 45.1208 44.3393H45.1166ZM14.222 11.7703C14.193 11.8778 14.2096 11.8158 14.222 11.7703V11.7703ZM13.7837 16.3137C13.7465 15.7391 13.7424 15.1644 13.7672 14.5898C13.792 14.0689 13.8251 13.7299 13.916 13.1676C13.9946 12.6922 14.1021 12.2209 14.2261 11.7579V11.7537C14.2468 11.6835 14.2674 11.6132 14.2922 11.5429C14.3253 11.4354 14.3584 11.3321 14.3956 11.2287C14.4783 10.9848 14.5692 10.7409 14.6643 10.5011C14.747 10.2944 14.838 10.0918 14.9289 9.88923C14.9289 9.8851 14.933 9.87683 14.9372 9.87269C14.9372 9.87269 14.9372 9.86443 14.9413 9.86029C14.962 9.81482 14.9826 9.77347 15.0075 9.728C15.0695 9.60811 15.1315 9.48822 15.1935 9.36832C15.3051 9.16162 15.4209 8.95904 15.5408 8.7606C15.6028 8.65725 15.6689 8.55389 15.7351 8.45054C15.7599 8.4092 15.7888 8.36786 15.8136 8.32651C15.8467 8.2769 15.8715 8.23556 15.8756 8.22316C16.1195 7.84281 16.4337 7.48314 16.7314 7.14827C16.8141 7.05732 16.8926 6.96637 16.9795 6.87955C17.0043 6.85061 17.0332 6.82581 17.058 6.79687C17.0828 6.7762 17.1076 6.75139 17.1159 6.74313C17.2895 6.57362 17.4673 6.40826 17.6492 6.24702C17.8228 6.09406 18.0006 5.94936 18.1866 5.8088C18.2734 5.74266 18.3603 5.67651 18.4512 5.61036C18.4595 5.60209 18.4678 5.59796 18.476 5.59383C18.476 5.59383 18.476 5.59383 18.4802 5.59383C18.5504 5.54835 18.6207 5.49874 18.691 5.44913C19.0879 5.18868 19.4972 4.95716 19.9271 4.75045C20.0263 4.70498 20.1214 4.6595 20.2206 4.61403C20.2744 4.58922 20.3323 4.56855 20.386 4.54375C20.3901 4.54375 20.3943 4.54375 20.3984 4.53961C20.4108 4.53961 20.4232 4.53134 20.4356 4.52307C20.6589 4.44039 20.8862 4.35771 21.1136 4.28743C21.5725 4.14686 22.0397 4.03524 22.5151 3.95669C23.3957 3.80786 24.2928 3.78306 25.2437 3.88228C26.178 3.9815 27.0503 4.18821 27.8813 4.53548C29.692 5.28376 31.1183 6.56536 32.1147 8.24383C32.6232 9.10374 32.9787 9.99258 33.2392 10.9931C33.297 11.2163 33.3508 11.4437 33.3963 11.6711C33.4211 11.7992 33.4459 11.9232 33.4665 12.0514C33.4789 12.1134 33.4872 12.1796 33.4996 12.2416C33.4996 12.2622 33.5203 12.3987 33.5244 12.4193C33.5864 12.8948 33.6195 13.3743 33.6319 13.8539C33.6567 15.0776 33.5451 16.0905 33.2888 17.3142C33.2309 17.5953 33.1647 17.8765 33.0945 18.1534C33.0614 18.2857 33.0242 18.418 32.9911 18.5503C32.987 18.571 32.9828 18.5875 32.9787 18.5999C32.9787 18.6041 32.9787 18.6123 32.9704 18.6206C32.9415 18.724 32.9126 18.8232 32.8795 18.9265C32.7058 19.4929 32.5157 20.051 32.3048 20.605C32.094 21.159 31.8666 21.7006 31.6268 22.2421C31.5276 22.4654 31.4242 22.6928 31.3209 22.916C31.3168 22.9243 31.3126 22.9325 31.3085 22.9408C31.3044 22.9491 31.3002 22.9615 31.292 22.9739C31.2672 23.0235 31.2423 23.0731 31.2217 23.1227C31.1638 23.2467 31.1018 23.3708 31.0398 23.4907C30.8083 23.9578 30.5643 24.4167 30.3122 24.8715C29.8078 25.781 29.2662 26.6698 28.6874 27.538C28.613 27.6538 28.5345 27.7654 28.4559 27.877C28.4559 27.877 28.4518 27.8853 28.4476 27.8894C28.4228 27.9266 28.398 27.9597 28.3732 27.9969C28.2161 28.2202 28.0549 28.4434 27.8937 28.6666C27.5836 29.0883 27.2694 29.4976 26.9428 29.9069C26.8767 29.9896 26.8146 30.0681 26.7485 30.1467C26.6948 30.2004 26.6493 30.2583 26.6038 30.3203C26.054 30.9859 25.4834 31.6308 24.8923 32.2592C24.8096 32.3461 24.7228 32.437 24.6401 32.5238C24.6194 32.5445 24.5905 32.5734 24.5781 32.5858C24.5119 32.6561 24.4416 32.7223 24.3755 32.7884C24.1812 32.9827 23.9869 33.1729 23.7884 33.3631C23.5114 33.6276 23.2303 33.8881 22.9451 34.1444C21.8784 32.8752 20.8242 31.5812 19.8238 30.2459C19.7948 30.1591 19.7493 30.0888 19.6749 30.0475C18.0502 27.8522 16.5867 25.5371 15.5036 23.0318C14.5816 20.8985 13.916 18.5958 13.7713 16.322L13.7837 16.3137ZM28.9272 44.0664C25.3718 44.0334 21.8164 44.0003 18.261 43.9672C14.9868 43.9383 11.7125 43.9052 8.43412 43.8804C6.28021 43.8639 4.12631 43.8473 1.97241 43.8391C2.82405 42.4541 3.66328 41.0609 4.50665 39.6718C5.87506 37.4187 7.24348 35.1656 8.60775 32.9083C8.78552 32.6189 8.95916 32.3254 9.13693 32.036C10.1167 32.0153 11.0965 31.9905 12.0805 31.9698C13.9078 31.9285 15.7351 31.8872 17.5665 31.8458C17.9386 31.8376 18.3107 31.8293 18.6786 31.821C19.4021 32.7884 20.1504 33.731 20.9111 34.6571C21.2873 35.1118 21.6635 35.5666 22.0479 36.0172C22.2753 36.2859 22.6309 36.1578 22.8582 35.9593C24.3838 34.6323 25.8059 33.1812 27.1123 31.6308C27.9929 31.6102 28.8776 31.5895 29.7582 31.573C31.3705 31.5358 32.987 31.4986 34.5993 31.4655C34.9135 31.4572 35.2277 31.4531 35.5419 31.4448C36.3605 32.8711 37.179 34.2974 37.9976 35.7237C39.4611 38.2703 40.9287 40.8211 42.4087 43.3595C42.57 43.6323 42.7271 43.9093 42.8883 44.1822C41.4124 44.1739 39.9324 44.1657 38.4565 44.1533C35.2814 44.1284 32.1064 44.0995 28.9313 44.0706L28.9272 44.0664Z" fill="#583B39"/>
<path d="M29.4607 13.7258C29.3945 14.4368 29.0969 15.1066 28.7455 15.7308C27.406 18.108 25.219 19.989 22.693 21.006C20.5185 20.2247 18.7697 18.7446 18.0586 17.8186C17.2773 16.7974 16.8142 15.4704 17.054 14.2053C17.2938 12.9403 18.3439 11.8034 19.6255 11.6876C20.9071 11.5718 22.23 12.7005 22.1184 13.9862C23.0692 12.655 24.5203 11.6835 26.112 11.3155C27.0339 11.1006 28.1005 11.1212 28.7951 11.762C29.3201 12.2499 29.5227 13.0105 29.4565 13.7258H29.4607Z" fill="#EC8873"/>
</g>
<defs>
<clipPath id="clip0_302_198">
<rect width="45" height="48" fill="white"/>
</clipPath>
</defs>
</svg>
