<svg width="48" height="48" viewBox="0 0 48 48" fill="none" xmlns="http://www.w3.org/2000/svg">
<path d="M45.5896 8.99435C45.5815 8.83567 45.5611 8.67291 45.5286 8.51423C45.496 8.35148 45.4472 8.19686 45.3902 8.04225C45.3292 7.8917 45.26 7.74523 45.1746 7.60282C45.0078 7.32207 44.7962 7.06981 44.5439 6.85416C44.0516 6.42694 43.4006 6.1706 42.7414 6.14212H42.6234L41.948 6.13805C41.6958 6.14212 41.4394 6.14212 41.179 6.14212C40.8291 6.14619 40.4751 6.14619 40.1171 6.14619C40.1374 5.94275 40.1578 5.72303 40.1862 5.49111C40.2107 5.23478 40.2391 4.9581 40.2635 4.67328C40.2676 4.60411 40.2717 4.53088 40.2758 4.45764V4.43322L40.2798 4.25013C40.2798 4.22572 40.2798 4.19723 40.2758 4.17282C40.2717 4.124 40.2635 4.0711 40.2554 4.01821C40.2554 3.99379 40.2473 3.96938 40.2432 3.94497L40.2269 3.86766L40.2066 3.79442C40.1984 3.76594 40.1903 3.74153 40.1822 3.71712C40.1659 3.66829 40.1496 3.61946 40.1293 3.57064C40.0479 3.38347 39.938 3.21258 39.8038 3.05797C39.6695 2.90742 39.5067 2.77722 39.3359 2.67143C39.1568 2.56971 38.9656 2.49648 38.7662 2.44765C38.7174 2.43951 38.6645 2.43137 38.6157 2.42324C38.5669 2.4151 38.514 2.41103 38.4651 2.40696H38.3878L38.3146 2.40289C38.2617 2.40289 38.2129 2.40289 38.164 2.41103C37.9647 2.42731 37.7653 2.47613 37.5822 2.5453C37.395 2.61854 37.2242 2.72433 37.0695 2.84232C36.9149 2.96439 36.7847 3.11086 36.6708 3.26955C36.6098 3.34685 36.565 3.4323 36.5162 3.51368L36.4511 3.64795C36.4511 3.64795 36.4389 3.66829 36.4348 3.6805L36.4226 3.71712L36.3982 3.78222C36.386 3.8107 36.3778 3.83511 36.3697 3.86359L36.3453 3.94497L36.3249 4.02634C36.3209 4.05483 36.3168 4.08331 36.3127 4.10772C36.3005 4.16468 36.2924 4.22165 36.2883 4.27454V4.35999C36.2843 4.38847 36.2802 4.41695 36.2802 4.43729C36.2802 4.61225 36.2802 4.78721 36.2802 4.96217C36.2761 5.30802 36.2721 5.6498 36.2721 5.9753C36.2721 6.04447 36.2721 6.10957 36.268 6.17467C34.4004 6.19501 32.5043 6.21536 30.6042 6.23163C30.6246 6.00378 30.649 5.75558 30.6775 5.49111C30.7059 5.23478 30.7344 4.9581 30.7548 4.67328C30.7588 4.60411 30.767 4.53088 30.771 4.45764V4.41695L30.7751 4.32337V4.25013C30.771 4.22572 30.771 4.19723 30.767 4.17282C30.7629 4.124 30.7588 4.0711 30.7507 4.01821C30.7466 3.99379 30.7426 3.96938 30.7344 3.94497L30.7181 3.86766L30.7019 3.79442C30.6937 3.76594 30.6856 3.74153 30.6775 3.71712C30.6571 3.66829 30.6449 3.61946 30.6205 3.57064C30.5432 3.38347 30.4293 3.21258 30.2991 3.05797C30.1648 2.90742 30.002 2.77722 29.8271 2.67143C29.6521 2.56971 29.4568 2.49648 29.2615 2.44765C29.2086 2.43951 29.1598 2.43137 29.111 2.42324C29.0581 2.4151 29.0092 2.41103 28.9604 2.40696H28.8831L28.8058 2.40289C28.757 2.40289 28.7082 2.40289 28.6553 2.41103C28.4559 2.42731 28.2606 2.47613 28.0734 2.5453C27.8903 2.61854 27.7194 2.72433 27.5648 2.84232C27.4102 2.96439 27.2759 3.11086 27.162 3.26955C27.105 3.34685 27.0562 3.4323 27.0074 3.51368L26.9464 3.64795C26.9464 3.64795 26.9342 3.66829 26.9301 3.6805L26.9179 3.71712L26.8894 3.78222C26.8813 3.8107 26.8691 3.83511 26.8609 3.86359L26.8202 4.02634C26.8121 4.05483 26.808 4.08331 26.804 4.10772C26.7958 4.16468 26.7836 4.22165 26.7836 4.27454V4.35999C26.7755 4.38847 26.7755 4.41695 26.7755 4.43729C26.7714 4.61225 26.7714 4.78721 26.7673 4.96217C26.7673 5.30802 26.7633 5.6498 26.7592 5.9753V6.27232C24.8428 6.29267 22.9427 6.31301 21.0832 6.32928C21.1036 6.07702 21.1361 5.79627 21.1687 5.49111C21.1931 5.23478 21.2216 4.9581 21.246 4.67328C21.25 4.60411 21.2541 4.53088 21.2622 4.45764V4.25013C21.2622 4.22572 21.2623 4.19723 21.2582 4.17282C21.2541 4.124 21.246 4.0711 21.2419 4.01821C21.2378 3.99379 21.2297 3.96938 21.2256 3.94497L21.2094 3.86766L21.189 3.79442C21.1809 3.76594 21.1727 3.74153 21.1646 3.71712C21.1483 3.66829 21.132 3.61946 21.1117 3.57064C21.0303 3.38347 20.9205 3.21258 20.7862 3.05797C20.6519 2.90742 20.4932 2.77722 20.3183 2.67143C20.1393 2.56971 19.948 2.49648 19.7487 2.44765C19.6998 2.43951 19.651 2.43137 19.5981 2.42324C19.5493 2.4151 19.4964 2.41103 19.4476 2.40696H19.3743L19.297 2.40289C19.2482 2.40289 19.1953 2.40289 19.1465 2.41103C18.9471 2.42731 18.7518 2.47613 18.5646 2.5453C18.3815 2.61854 18.2106 2.72433 18.056 2.84232C17.8974 2.96439 17.7672 3.11086 17.6532 3.26955C17.5922 3.34685 17.5474 3.4323 17.4986 3.51368L17.4335 3.64795C17.4335 3.64795 17.4254 3.66829 17.4172 3.6805L17.405 3.71712L17.3806 3.78222C17.3725 3.8107 17.3603 3.83511 17.3521 3.86359L17.3318 3.94497L17.3074 4.02634C17.3033 4.05483 17.2992 4.08331 17.2952 4.10772C17.287 4.16468 17.2748 4.22165 17.2708 4.27454V4.35999C17.2667 4.38847 17.2626 4.41695 17.2626 4.43729C17.2626 4.61225 17.2626 4.78721 17.2626 4.96217C17.2585 5.30802 17.2586 5.6498 17.2545 5.9753C17.2545 6.1055 17.2504 6.2357 17.2504 6.36184H17.1975C15.5578 6.36997 13.621 6.37404 11.5744 6.36997C11.5948 6.10957 11.6273 5.81255 11.6599 5.49111C11.6884 5.23478 11.7168 4.9581 11.7372 4.67328C11.7453 4.60411 11.7494 4.53088 11.7535 4.45764V4.43322L11.7575 4.25013C11.7535 4.22572 11.7535 4.19723 11.7535 4.17282C11.7453 4.124 11.7413 4.0711 11.7331 4.01821L11.7209 3.94497L11.7006 3.86766L11.6843 3.79442C11.6762 3.76594 11.668 3.74153 11.6599 3.71712C11.6436 3.66829 11.6273 3.61946 11.6029 3.57064C11.5256 3.38347 11.4158 3.21258 11.2815 3.05797C11.1472 2.90742 10.9845 2.77722 10.8095 2.67143C10.6345 2.56971 10.4392 2.49648 10.2439 2.44765C10.191 2.43951 10.1422 2.43137 10.0934 2.42324C10.0446 2.4151 9.99167 2.41103 9.94285 2.40696H9.86554L9.7923 2.40289C9.73941 2.40289 9.69058 2.40289 9.64176 2.41103C9.43832 2.42731 9.24301 2.47613 9.05992 2.5453C8.87275 2.61854 8.70186 2.72433 8.54725 2.84232C8.39264 2.96439 8.25837 3.11086 8.14444 3.26955C8.08748 3.34685 8.03865 3.4323 7.98982 3.51368L7.92879 3.64795C7.92879 3.64795 7.91659 3.66829 7.91252 3.6805L7.90031 3.71712L7.8759 3.78222C7.86369 3.8107 7.85149 3.83511 7.84742 3.86359L7.823 3.94497L7.80266 4.02634C7.79452 4.05483 7.79045 4.08331 7.78638 4.10772C7.77825 4.16468 7.76604 4.22165 7.76604 4.27454V4.35999C7.7579 4.38847 7.7579 4.41695 7.7579 4.43729C7.7579 4.61225 7.75383 4.78721 7.75383 4.96217C7.75383 5.30802 7.7457 5.6498 7.74163 5.9753V6.36184C7.03366 6.35777 6.32975 6.3537 5.63399 6.3537C5.53227 6.3537 5.43055 6.34963 5.32883 6.34963H5.16608C5.10911 6.3537 5.05215 6.35777 4.99112 6.36184C4.7592 6.38218 4.53134 6.43507 4.31163 6.50831C4.09191 6.58562 3.88441 6.69141 3.69317 6.81754C3.50194 6.94367 3.32698 7.09422 3.17237 7.26104C3.02182 7.42786 2.88755 7.61503 2.78176 7.81033C2.6719 8.00563 2.59053 8.21314 2.53356 8.42472C2.47253 8.63629 2.44405 8.85601 2.43591 9.07166V9.21813C2.43591 9.26289 2.43184 9.31172 2.43184 9.35647V9.62501C2.42777 10.3452 2.42777 11.0287 2.42371 11.6676C2.39116 19.8703 2.45219 27.2673 2.51729 34.8597C2.52949 36.7558 2.54577 38.6681 2.56205 40.6049C2.56205 41.0931 2.57018 41.5773 2.57018 42.0656C2.57425 42.3097 2.57425 42.5538 2.57425 42.802C2.57832 42.9241 2.57832 43.0461 2.57832 43.1682C2.57832 43.3065 2.59053 43.4408 2.61087 43.5791C2.69632 44.1203 2.95672 44.633 3.34325 45.0276C3.72979 45.4223 4.24246 45.6949 4.79175 45.7844C4.93009 45.8089 5.06843 45.8211 5.20677 45.8211H5.25966L5.40207 45.8251H5.58923L6.3501 45.8211C6.8587 45.817 7.37137 45.817 7.88404 45.817C8.91344 45.8129 9.95505 45.8129 11.0129 45.8088C13.1287 45.8088 15.3015 45.8129 17.5474 45.8211L31.6621 46.0855C34.0424 46.1059 36.3656 46.0937 38.6523 46.0652C39.7956 46.0489 40.9349 46.0326 42.066 46.0082C42.2084 46.0082 42.3508 46.0042 42.4932 46.0001H42.599L42.7211 45.9919C42.8065 45.9879 42.8879 45.9797 42.9693 45.9675C43.2989 45.9187 43.6203 45.8129 43.9092 45.6502C44.1981 45.4915 44.4585 45.2799 44.6701 45.0317C44.8857 44.7876 45.0566 44.5028 45.1705 44.1976C45.2275 44.043 45.2722 43.8843 45.3007 43.7256C45.3333 43.5669 45.3455 43.4042 45.3455 43.2414V43.1845C45.3495 43.1641 45.3455 43.1479 45.3455 43.1275V42.8101L45.3292 42.387C45.317 41.8214 45.3048 41.2559 45.2926 40.6903C45.2722 39.5551 45.2519 38.4158 45.2315 37.2725C45.199 34.9818 45.1787 32.6544 45.1909 30.266C45.2153 26.063 45.3251 21.9738 45.4309 17.8847C45.4797 15.8421 45.5286 13.7996 45.5652 11.7408C45.5733 11.2241 45.5815 10.7073 45.5896 10.1906C45.5896 9.93424 45.5896 9.67384 45.5977 9.41343V9.17338L45.6018 9.11641V8.99435H45.5896ZM3.33919 10.7602C3.34732 10.3086 3.35139 9.84473 3.35953 9.38088C3.3636 9.26696 3.3636 9.13676 3.36767 9.05538C3.37581 8.9618 3.38801 8.87228 3.40836 8.78277C3.4287 8.69326 3.45311 8.60374 3.48566 8.5183C3.51821 8.43285 3.5589 8.34741 3.60366 8.26603C3.78269 7.9446 4.0675 7.67199 4.40521 7.50924C4.48659 7.46855 4.5761 7.43193 4.66561 7.40345C4.75513 7.37904 4.84464 7.35462 4.93822 7.34242C5.03181 7.33021 5.12539 7.318 5.21897 7.32207H5.398C5.4631 7.32207 5.52413 7.32207 5.58516 7.32614C6.29313 7.33428 7.00924 7.33835 7.73349 7.34648V7.77371C7.7457 9.43785 7.79452 9.95052 7.84335 10.333C7.84335 10.3452 7.84335 10.3574 7.84335 10.3737C7.84742 10.3859 7.84742 10.3981 7.85149 10.4144C7.85555 10.4388 7.85962 10.4673 7.86369 10.4957C7.86369 10.5079 7.86369 10.5201 7.87183 10.5324C7.8759 10.5486 7.87997 10.5608 7.88404 10.573C7.8881 10.6015 7.89624 10.6259 7.90438 10.6544C7.93286 10.7602 7.97762 10.8741 8.03865 11.0043C8.10782 11.1305 8.19326 11.281 8.3316 11.4397C8.47401 11.5984 8.67745 11.7693 8.96634 11.8954C9.05585 11.932 9.14943 11.9686 9.24708 11.9808C9.2715 11.9808 9.29184 11.9849 9.31625 11.989C9.34067 11.989 9.36508 11.989 9.38542 11.989C9.40984 11.9849 9.43018 11.9849 9.45459 11.9808C9.46273 11.9768 9.47494 11.9727 9.48307 11.9727C9.49528 11.9686 9.50342 11.9646 9.51562 11.9605C9.59293 11.9239 9.63769 11.8303 9.64583 11.7245C9.65396 11.6228 9.63769 11.5089 9.60514 11.4397C9.58886 11.4031 9.57259 11.3827 9.55631 11.3665C9.55224 11.3624 9.54817 11.3624 9.54411 11.3583C9.54004 11.3583 9.5319 11.3502 9.52783 11.3461C9.51969 11.342 9.50749 11.338 9.49935 11.3339C9.45459 11.3217 9.4017 11.3176 9.3366 11.2892C9.23488 11.2485 9.14129 11.1915 9.05178 11.1264C8.96634 11.0654 8.88089 10.9921 8.80765 10.9108C8.73441 10.8253 8.67338 10.7317 8.62049 10.6259L8.60014 10.5893L8.59201 10.569L8.58387 10.5486C8.57573 10.5201 8.56353 10.4917 8.55132 10.4632C8.54725 10.4347 8.53911 10.4062 8.53097 10.3737L8.52284 10.3533C8.52284 10.3533 8.52284 10.333 8.51877 10.3208L8.51063 10.2638C8.41298 9.61688 8.30719 8.96994 8.33567 8.28638C8.3845 7.08201 8.78324 5.94682 8.75883 4.74245C8.75883 4.67328 8.75883 4.60004 8.75069 4.52681C8.75069 4.49019 8.75069 4.45357 8.74662 4.41695V4.34778C8.74662 4.34778 8.75069 4.30302 8.75069 4.28268C8.75069 4.25827 8.75069 4.23385 8.75883 4.21351C8.7629 4.1891 8.7629 4.16875 8.76696 4.14434C8.7751 4.11993 8.77917 4.09958 8.78731 4.07517C8.81579 3.98566 8.85241 3.89614 8.9053 3.8107C8.96227 3.72932 9.03144 3.65201 9.11281 3.58691C9.13316 3.57064 9.1535 3.55436 9.17384 3.53809C9.19419 3.52588 9.2186 3.50961 9.23895 3.4974C9.23895 3.4974 9.25115 3.48926 9.25522 3.48519L9.2715 3.47706L9.30812 3.46078L9.34473 3.44044L9.38135 3.42823L9.41797 3.41602L9.43832 3.40789C9.43832 3.40789 9.45052 3.40382 9.45459 3.39975C9.48307 3.39568 9.50749 3.38754 9.53597 3.37941C9.56038 3.37534 9.58886 3.37127 9.61328 3.3672C9.62955 3.3672 9.64176 3.36313 9.65396 3.36313H9.69465L9.77603 3.35906C9.80451 3.35906 9.83299 3.36313 9.8574 3.36313C9.88588 3.3672 9.9103 3.37127 9.93878 3.37534C9.95099 3.37941 9.96726 3.37941 9.97947 3.38347L10.0202 3.39568C10.073 3.40382 10.1219 3.42823 10.1707 3.44857C10.2195 3.47299 10.2684 3.49333 10.3131 3.52588C10.427 3.59912 10.541 3.71305 10.6223 3.85952L10.6386 3.88394L10.6508 3.91242C10.6508 3.91242 10.6712 3.94904 10.6793 3.96938C10.6834 3.97752 10.6874 3.98973 10.6915 3.99786L10.6996 4.03041C10.6996 4.03041 10.7159 4.0711 10.72 4.09145C10.7241 4.11179 10.7322 4.13213 10.7363 4.15248C10.7403 4.17282 10.7485 4.19723 10.7485 4.21758C10.7525 4.26233 10.7607 4.30302 10.7607 4.34778V4.49833C10.7566 4.55529 10.7566 4.61632 10.7525 4.67328C10.7525 4.78721 10.7485 4.90114 10.7444 5.01099C10.7363 5.23478 10.7281 5.44229 10.7241 5.62538C10.6915 6.80127 10.7525 7.85508 10.8176 8.94145C10.8339 9.21406 10.8502 9.48667 10.8624 9.76335C10.8705 9.90169 10.8746 10.0441 10.8827 10.1824C10.8827 10.2191 10.8827 10.2557 10.8868 10.2882V10.4754C10.8827 10.5079 10.8827 10.5364 10.8787 10.5649C10.8583 10.6829 10.8298 10.8009 10.7729 10.9108C10.72 11.0247 10.6549 11.1305 10.5654 11.22C10.4759 11.3136 10.3741 11.3949 10.2561 11.456C10.1422 11.517 10.0161 11.5577 9.88182 11.578C9.84113 11.5821 9.80858 11.5984 9.77603 11.6187C9.74755 11.6391 9.71906 11.6676 9.69872 11.7001C9.65396 11.7733 9.63362 11.8751 9.6621 12.0053C9.67838 12.0866 9.73127 12.1395 9.80451 12.1721C9.84113 12.1924 9.88182 12.1965 9.9225 12.2006C9.94692 12.2046 9.96726 12.2046 9.99167 12.2046C10.012 12.2087 10.0364 12.2046 10.0568 12.2046C10.3416 12.1721 10.5979 12.0582 10.8054 11.9035C11.0129 11.7449 11.1716 11.5414 11.2856 11.3136C11.3995 11.0857 11.4686 10.8294 11.4849 10.5608V10.3533C11.4849 10.2964 11.4809 10.2394 11.4809 10.1784C11.4809 10.0604 11.4809 9.93831 11.4809 9.80811C11.4971 9.0269 11.5419 8.17652 11.55 7.3709H11.7006C13.5234 7.37497 15.3706 7.36276 17.2423 7.34242V7.77778C17.2545 9.44192 17.3033 9.95459 17.3521 10.3371C17.3562 10.3493 17.3562 10.3615 17.3603 10.3777C17.3603 10.3899 17.3643 10.4022 17.3643 10.4184C17.3725 10.4428 17.3765 10.4713 17.3806 10.4998C17.3806 10.512 17.3806 10.5242 17.3888 10.5364C17.3888 10.5527 17.3928 10.5649 17.3969 10.5771C17.405 10.6056 17.4132 10.63 17.4172 10.6585C17.4498 10.7643 17.4905 10.8782 17.5556 11.0084C17.6207 11.1345 17.7061 11.2851 17.8485 11.4438C17.9909 11.6024 18.1903 11.7733 18.4833 11.8995C18.5687 11.9361 18.6664 11.9727 18.7599 11.9849C18.7843 11.9849 18.8088 11.989 18.8332 11.9931C18.8535 11.9931 18.8779 11.9931 18.9023 11.9931C18.9227 11.989 18.9471 11.989 18.9674 11.9849C18.9797 11.9808 18.9878 11.9768 19 11.9768C19.0081 11.9727 19.0203 11.9686 19.0285 11.9646C19.1099 11.928 19.1505 11.8344 19.1587 11.7286C19.1709 11.6269 19.1505 11.5129 19.118 11.4438C19.1058 11.4071 19.0895 11.3868 19.0692 11.3705C19.0651 11.3665 19.061 11.3665 19.057 11.3624C19.0529 11.3624 19.0488 11.3543 19.0448 11.3502C19.0325 11.3461 19.0244 11.342 19.0122 11.338C18.9674 11.3258 18.9146 11.3217 18.8535 11.2932C18.7518 11.2525 18.6582 11.1956 18.5687 11.1305C18.4792 11.0694 18.3978 10.9962 18.3246 10.9148C18.2473 10.8294 18.1862 10.7358 18.1333 10.63L18.1171 10.5934L18.1049 10.573L18.0967 10.5527C18.0886 10.5242 18.0804 10.4957 18.0682 10.4673C18.0601 10.4388 18.052 10.4103 18.0438 10.3777V10.3574C18.0438 10.3574 18.0357 10.3371 18.0357 10.3248L18.0235 10.2679C17.9258 9.62094 17.8241 8.97401 17.8485 8.29045C17.8974 7.08608 18.2961 5.95089 18.2717 4.74652C18.2717 4.67735 18.2676 4.60411 18.2676 4.53088C18.2635 4.49426 18.2635 4.45764 18.2635 4.42102V4.35185C18.2635 4.35185 18.2635 4.30709 18.2635 4.28675C18.2676 4.26233 18.2676 4.23792 18.2717 4.21758C18.2717 4.19317 18.2798 4.17282 18.2839 4.14841C18.288 4.124 18.2961 4.10365 18.3002 4.07924C18.3286 3.98972 18.3693 3.90021 18.4222 3.81477C18.4792 3.73339 18.5443 3.65608 18.6257 3.59098C18.646 3.57471 18.6664 3.55843 18.6867 3.54216C18.7111 3.52995 18.7315 3.51368 18.7518 3.50147C18.7599 3.50147 18.764 3.49333 18.7681 3.48926L18.7884 3.48113L18.825 3.46485L18.8576 3.44451L18.8942 3.4323L18.9349 3.42009L18.9512 3.41196C18.9512 3.41196 18.9634 3.40789 18.9715 3.40382C18.9959 3.39975 19.0244 3.39161 19.0488 3.38347C19.0773 3.37941 19.1017 3.37534 19.1302 3.37127C19.1424 3.37127 19.1546 3.3672 19.1709 3.3672H19.2116L19.2929 3.36313C19.3174 3.36313 19.3458 3.3672 19.3743 3.3672C19.3987 3.37127 19.4272 3.37534 19.4557 3.37941C19.4679 3.38347 19.4801 3.38347 19.4923 3.38754L19.533 3.39975C19.5859 3.40789 19.6347 3.4323 19.6876 3.45264C19.7324 3.47706 19.7853 3.4974 19.826 3.52995C19.9399 3.60319 20.0538 3.71712 20.1352 3.86359L20.1515 3.88801L20.1677 3.91649C20.1677 3.91649 20.184 3.95311 20.1922 3.97345C20.1962 3.98159 20.2003 3.99379 20.2044 4.00193L20.2166 4.03448C20.2166 4.03448 20.2288 4.07517 20.2369 4.09551C20.241 4.11586 20.245 4.1362 20.2491 4.15655C20.2532 4.17689 20.2613 4.2013 20.2613 4.22165C20.2654 4.2664 20.2776 4.30709 20.2735 4.35185V4.41695L20.2776 4.42509V4.43729L20.2735 4.50239C20.2735 4.55936 20.2695 4.62039 20.2695 4.67735C20.2654 4.79128 20.2613 4.90521 20.2573 5.01506C20.2573 5.23885 20.245 5.44636 20.2369 5.62945C20.2044 6.80533 20.2695 7.85915 20.3305 8.94552C20.3468 9.21813 20.363 9.49074 20.3753 9.76742C20.3834 9.90576 20.3915 10.0482 20.3956 10.1865C20.3997 10.2231 20.3997 10.2597 20.3997 10.2923V10.3493L20.4037 10.4795C20.3997 10.512 20.3956 10.5405 20.3915 10.569C20.3753 10.687 20.3427 10.805 20.2898 10.9148C20.2369 11.0287 20.1677 11.1345 20.0782 11.2241C19.9887 11.3176 19.887 11.399 19.7731 11.46C19.6551 11.5211 19.5289 11.5618 19.3987 11.5821C19.3581 11.5862 19.3214 11.6024 19.2929 11.6228C19.2604 11.6431 19.2319 11.6716 19.2116 11.7042C19.1709 11.7774 19.1465 11.8791 19.175 12.0093C19.1953 12.0907 19.2482 12.1436 19.3214 12.1762C19.354 12.1965 19.3947 12.2006 19.4394 12.2046C19.4598 12.2087 19.4842 12.2087 19.5045 12.2087C19.5289 12.2128 19.5493 12.2087 19.5696 12.2087C19.8544 12.1762 20.1108 12.0622 20.3183 11.9076C20.5258 11.7489 20.6885 11.5455 20.8025 11.3176C20.9164 11.0898 20.9815 10.8334 20.9978 10.5649C21.0018 10.5486 21.0018 10.5283 21.0018 10.512V10.3574C20.9978 10.3004 20.9978 10.2435 20.9937 10.1824C20.9937 10.0644 20.9937 9.94238 20.9937 9.81218C21.01 9.00656 21.0547 8.13176 21.0629 7.30173C22.9386 7.27732 24.8387 7.24883 26.7511 7.22442C26.7511 7.41972 26.7551 7.60282 26.7551 7.78185C26.7673 9.44599 26.8162 9.95865 26.865 10.3411C26.865 10.3533 26.865 10.3655 26.865 10.3818C26.8691 10.394 26.8691 10.4062 26.8731 10.4225C26.8772 10.4469 26.8813 10.4754 26.8853 10.5039C26.8853 10.5161 26.8853 10.5283 26.8935 10.5405C26.8975 10.5568 26.9016 10.569 26.9016 10.5812C26.9097 10.6097 26.9179 10.6341 26.926 10.6626C26.9545 10.7683 26.9993 10.8823 27.0603 11.0125C27.1254 11.1386 27.2108 11.2892 27.3532 11.4478C27.4957 11.6065 27.695 11.7774 27.988 11.9035C28.0775 11.9402 28.1711 11.9768 28.2687 11.989C28.2931 11.989 28.3135 11.9931 28.3379 11.9971C28.3623 11.9971 28.3867 11.9971 28.4071 11.9971C28.4315 11.9931 28.4518 11.9931 28.4722 11.989C28.4844 11.9849 28.4966 11.9808 28.5047 11.9808C28.5169 11.9768 28.5251 11.9727 28.5373 11.9686C28.6146 11.932 28.6553 11.8384 28.6675 11.7327C28.6756 11.6309 28.6593 11.517 28.6268 11.4478C28.6105 11.4112 28.5942 11.3909 28.578 11.3746C28.5739 11.3705 28.5698 11.3705 28.5657 11.3665C28.5576 11.3665 28.5535 11.3583 28.5495 11.3543C28.5413 11.3502 28.5291 11.3461 28.5169 11.342C28.4762 11.3298 28.4193 11.3258 28.3582 11.2973C28.2565 11.2566 28.1629 11.1996 28.0734 11.1345C27.988 11.0735 27.9025 11.0003 27.8293 10.9189C27.7561 10.8334 27.691 10.7399 27.6421 10.6341L27.6218 10.5975L27.6136 10.5771L27.6055 10.5568C27.5933 10.5283 27.5852 10.4998 27.573 10.4713C27.5689 10.4428 27.5608 10.4144 27.5526 10.3818L27.5445 10.3615C27.5445 10.3615 27.5445 10.3411 27.5404 10.3289L27.5323 10.272C27.4346 9.62501 27.3288 8.97807 27.3573 8.29452C27.4021 7.09015 27.8008 5.95496 27.7764 4.75059C27.7764 4.68142 27.7764 4.60818 27.7723 4.53494C27.7723 4.49832 27.7683 4.46171 27.7683 4.42509V4.35592C27.7683 4.35592 27.7723 4.31116 27.7723 4.29082C27.7723 4.2664 27.7723 4.24199 27.7764 4.22165C27.7845 4.19723 27.7845 4.17689 27.7886 4.15248C27.7967 4.12806 27.8008 4.10772 27.8089 4.08331C27.8334 3.99379 27.8741 3.90428 27.9269 3.81884C27.9839 3.73746 28.0531 3.66015 28.1304 3.59505C28.1507 3.57878 28.1711 3.5625 28.1914 3.54623C28.2158 3.53402 28.2362 3.51774 28.2606 3.50554C28.2606 3.50554 28.2687 3.4974 28.2769 3.49333L28.2931 3.48519L28.3298 3.46892L28.3664 3.44857L28.403 3.43637L28.4396 3.42416L28.46 3.41602C28.46 3.41602 28.4722 3.41196 28.4762 3.40789C28.5047 3.40382 28.5291 3.39568 28.5535 3.38754C28.582 3.38347 28.6105 3.37941 28.6349 3.37534C28.6471 3.37534 28.6634 3.37127 28.6756 3.37127H28.7163L28.7977 3.3672C28.8261 3.3672 28.8506 3.37127 28.879 3.37127C28.9075 3.37534 28.9319 3.37941 28.9604 3.38347C28.9726 3.38754 28.9889 3.38754 29.0011 3.39161L29.0377 3.40382C29.0947 3.41196 29.1435 3.43637 29.1923 3.45671C29.2412 3.48112 29.29 3.50147 29.3347 3.53402C29.4487 3.60726 29.5585 3.72118 29.644 3.86766L29.6603 3.89207L29.6725 3.92056C29.6725 3.92056 29.6887 3.95717 29.7009 3.97752C29.705 3.98566 29.7091 3.99786 29.7091 4.006L29.7213 4.03855C29.7213 4.03855 29.7376 4.07924 29.7416 4.09958C29.7457 4.11993 29.7498 4.14027 29.7579 4.16061C29.762 4.18096 29.766 4.20537 29.7701 4.22572C29.7742 4.27047 29.7823 4.31116 29.7823 4.35592V4.50646C29.7782 4.56343 29.7782 4.62446 29.7742 4.68142C29.7701 4.79535 29.7701 4.90927 29.766 5.01913C29.7579 5.24292 29.7498 5.45042 29.7457 5.63352C29.7091 6.8094 29.7742 7.86322 29.8393 8.94959C29.8556 9.2222 29.8678 9.49481 29.884 9.77149C29.8881 9.90983 29.8962 10.0522 29.9044 10.1906C29.9044 10.2272 29.9044 10.2638 29.9084 10.2964V10.4835C29.9044 10.5161 29.9003 10.5446 29.9003 10.573C29.88 10.691 29.8515 10.809 29.7945 10.9189C29.7416 11.0328 29.6725 11.1386 29.5829 11.2281C29.4975 11.3217 29.3958 11.4031 29.2778 11.4641C29.1639 11.5251 29.0377 11.5658 28.9035 11.5862C28.8628 11.5902 28.8302 11.6065 28.7977 11.6269C28.7651 11.6472 28.7407 11.6757 28.7163 11.7082C28.6756 11.7815 28.6512 11.8832 28.6837 12.0134C28.7 12.0948 28.7529 12.1477 28.8261 12.1802C28.8628 12.2006 28.9035 12.2046 28.9441 12.2087C28.9686 12.2128 28.9889 12.2128 29.0092 12.2128C29.0337 12.2168 29.054 12.2128 29.0784 12.2128C29.3632 12.1802 29.6196 12.0663 29.823 11.9117C30.0346 11.753 30.1933 11.5496 30.3072 11.3217C30.4211 11.0939 30.4903 10.8375 30.5066 10.569V10.3615C30.5066 10.3045 30.5025 10.2475 30.5025 10.1865C30.5025 10.0685 30.4944 9.94645 30.5025 9.81625C30.5188 8.96994 30.5676 8.04632 30.5717 7.18373C32.4596 7.16339 34.3556 7.15525 36.2639 7.15525V7.78592C36.2761 9.45005 36.3249 9.96272 36.3738 10.3452C36.3778 10.3574 36.3778 10.3696 36.3819 10.3859C36.3819 10.3981 36.386 10.4103 36.386 10.4266C36.39 10.451 36.3941 10.4795 36.4023 10.5079C36.4023 10.5201 36.4023 10.5324 36.4023 10.5446C36.4063 10.5608 36.4104 10.573 36.4145 10.5852C36.4226 10.6137 36.4267 10.6381 36.4348 10.6666C36.4674 10.7724 36.508 10.8863 36.5691 11.0165C36.6382 11.1427 36.7237 11.2932 36.8661 11.4519C37.0085 11.6106 37.2079 11.7815 37.4968 11.9076C37.5863 11.9442 37.6799 11.9808 37.7775 11.9931C37.8019 11.9931 37.8263 11.9971 37.8467 12.0012C37.8711 12.0012 37.8955 12.0012 37.9199 12.0012C37.9403 11.9971 37.9647 11.9971 37.985 11.9931C37.9932 11.989 38.0054 11.9849 38.0135 11.9849C38.0257 11.9808 38.0379 11.9768 38.046 11.9727C38.1274 11.9361 38.1681 11.8425 38.1763 11.7367C38.1885 11.635 38.1681 11.5211 38.1356 11.4519C38.1193 11.4153 38.1071 11.3949 38.0867 11.3787C38.0827 11.3746 38.0786 11.3746 38.0745 11.3705C38.0705 11.3705 38.0664 11.3624 38.0583 11.3583C38.0501 11.3543 38.042 11.3502 38.0298 11.3461C37.985 11.3339 37.9321 11.3298 37.8711 11.3014C37.7653 11.2607 37.6717 11.2037 37.5863 11.1386C37.4968 11.0776 37.4154 11.0043 37.3381 10.923C37.2648 10.8375 37.2038 10.7439 37.1509 10.6381L37.1346 10.6015L37.1224 10.5812L37.1143 10.5608C37.1062 10.5324 37.094 10.5039 37.0858 10.4754C37.0777 10.4469 37.0695 10.4184 37.0614 10.3859V10.3655C37.0614 10.3655 37.0533 10.3452 37.0533 10.333L37.0411 10.276C36.9434 9.62908 36.8376 8.98214 36.8661 8.29858C36.9149 7.09422 37.3137 5.95902 37.2893 4.75466C37.2852 4.68549 37.2852 4.61225 37.2852 4.53901C37.2811 4.50239 37.2811 4.46577 37.2811 4.42916C37.2811 4.40474 37.2811 4.3844 37.277 4.35999C37.277 4.33964 37.2811 4.31523 37.2811 4.29489C37.2852 4.27047 37.2811 4.24606 37.2893 4.22572C37.2893 4.2013 37.2974 4.18096 37.3015 4.15655C37.3055 4.13213 37.3137 4.11179 37.3177 4.08738C37.3462 3.99786 37.3869 3.90835 37.4398 3.8229C37.4927 3.74153 37.5619 3.66422 37.6432 3.59912C37.6636 3.58285 37.6839 3.56657 37.7043 3.55029C37.7246 3.53809 37.749 3.52181 37.7694 3.50961C37.7775 3.50961 37.7816 3.50147 37.7856 3.4974L37.806 3.48926L37.8385 3.47299L37.8752 3.45264L37.9118 3.44044L37.9484 3.42823L37.9687 3.42009C37.9687 3.42009 37.9809 3.41602 37.9891 3.41196C38.0135 3.40789 38.0379 3.39975 38.0664 3.39161C38.0908 3.38754 38.1193 3.38347 38.1478 3.37941C38.16 3.37941 38.1722 3.37534 38.1844 3.37534H38.2251L38.3105 3.37127C38.3349 3.37127 38.3634 3.37534 38.3919 3.37534C38.4163 3.37941 38.4448 3.38347 38.4692 3.38754C38.4855 3.39161 38.4977 3.39161 38.5099 3.39568L38.5506 3.40789C38.6035 3.41602 38.6523 3.44044 38.7052 3.46078C38.75 3.48519 38.8028 3.50554 38.8435 3.53809C38.9575 3.61133 39.0714 3.72525 39.1528 3.87173L39.169 3.89614L39.1812 3.92462C39.1812 3.92462 39.2016 3.96124 39.2097 3.98159C39.2138 3.98973 39.2179 4.00193 39.2219 4.01007L39.2301 4.04262C39.2301 4.04262 39.2463 4.08331 39.2545 4.10365C39.2585 4.124 39.2626 4.14434 39.2667 4.16468C39.2708 4.18503 39.2789 4.20944 39.2789 4.22978C39.283 4.27454 39.2911 4.31523 39.2911 4.35999V4.51053C39.287 4.56749 39.287 4.62853 39.287 4.68549C39.283 4.79942 39.2789 4.91334 39.2748 5.0232C39.2667 5.24698 39.2626 5.45449 39.2545 5.63759C39.2219 6.81347 39.287 7.86729 39.3481 8.95366C39.3643 9.22627 39.3806 9.49888 39.3928 9.77556C39.401 9.9139 39.405 10.0563 39.4132 10.1946C39.4132 10.2313 39.4172 10.2679 39.4172 10.3004V10.3574L39.4213 10.4022C39.4172 10.4306 39.4172 10.4591 39.4172 10.4876C39.4172 10.5201 39.4132 10.5486 39.4091 10.5771C39.3928 10.6951 39.3603 10.8131 39.3074 10.923C39.2504 11.0369 39.1853 11.1427 39.0958 11.2322C39.0063 11.3258 38.9046 11.4071 38.7906 11.4682C38.6726 11.5292 38.5465 11.5699 38.4163 11.5902C38.3756 11.5943 38.339 11.6106 38.3065 11.6309C38.278 11.6513 38.2495 11.6798 38.2291 11.7123C38.1885 11.7855 38.164 11.8873 38.1925 12.0175C38.2129 12.0988 38.2658 12.1517 38.3349 12.1843C38.3716 12.2046 38.4122 12.2087 38.457 12.2128C38.4773 12.2168 38.4977 12.2168 38.5221 12.2168C38.5424 12.2209 38.5669 12.2168 38.5872 12.2168C38.872 12.1843 39.1283 12.0704 39.3359 11.9157C39.5434 11.7571 39.7061 11.5536 39.82 11.3258C39.934 11.0979 39.9991 10.8416 40.0153 10.573C40.0194 10.5568 40.0194 10.5364 40.0194 10.5201V10.3655C40.0154 10.3086 40.0153 10.2516 40.0113 10.1906C40.0113 10.0726 40.0113 9.95052 40.0113 9.82031C40.0276 8.96587 40.0764 8.03411 40.0804 7.16339H40.5931C41.2116 7.16746 41.826 7.16746 42.4363 7.16746C42.6031 7.16746 42.713 7.16746 42.8432 7.18373C42.9693 7.20001 43.0954 7.22849 43.2134 7.26918C43.4535 7.35055 43.6813 7.47669 43.8726 7.63944C44.0638 7.80219 44.2266 8.00156 44.3446 8.22128C44.4666 8.44099 44.5399 8.68512 44.5683 8.92925C44.5724 8.9618 44.5724 8.99435 44.5765 9.02283C44.5805 9.05538 44.5805 9.08793 44.5805 9.11641V10.6707C44.5765 11.8547 44.5765 13.0225 44.5765 14.1658C44.5765 14.8209 44.5765 15.4637 44.5724 16.1025C44.4992 16.0903 44.4219 16.0822 44.3405 16.0781C42.5665 15.952 41.2929 16.1636 39.2423 16.1432C37.3381 16.127 35.2345 16.0619 33.3344 16.0781C31.9591 16.0863 29.7172 15.8666 27.3695 15.8543C25.1113 15.8421 22.7067 16.0944 20.2532 16.0781C17.4254 16.0619 14.6993 16.0496 12.5998 16.0578C6.02459 16.0781 8.52284 16.249 4.07157 16.2816C3.79896 16.2816 3.50601 16.2816 3.25781 16.3223C3.27409 14.6418 3.30664 12.7743 3.33512 10.7765L3.33919 10.7602ZM44.6619 43.3106C44.6619 43.3106 44.6578 43.3513 44.6578 43.3716C44.6538 43.4123 44.6497 43.453 44.6456 43.4937C44.5968 43.8192 44.4829 44.104 44.3242 44.3481C44.1655 44.5923 43.9662 44.7957 43.7342 44.9503C43.5023 45.1049 43.2378 45.2189 42.949 45.2718C42.8757 45.288 42.8025 45.2962 42.7292 45.3043C42.6926 45.3084 42.656 45.3043 42.6153 45.3084C42.599 45.3084 42.5746 45.3084 42.5543 45.3125H42.4892C42.3183 45.3125 42.1393 45.3165 41.9521 45.3206C41.5859 45.3247 41.1872 45.3287 40.7518 45.3369C39.0022 45.3572 36.6016 45.3735 32.6671 45.3816C31.4749 45.3857 30.1689 45.3816 29.1842 45.4589C29.0784 45.4671 28.9848 45.4793 28.8994 45.4915L18.7437 45.2555C18.3246 45.2107 17.7834 45.1863 17.2382 45.1782C14.0971 45.1172 11.4035 45.1375 8.58794 45.1741C7.88404 45.1823 7.172 45.1904 6.44368 45.1985C6.07749 45.2067 5.7113 45.2107 5.33697 45.2148H5.14166C5.14166 45.2148 5.10505 45.2107 5.0847 45.2107C5.06436 45.2107 5.04401 45.2067 5.02367 45.2067L4.96264 45.1985C4.92195 45.1985 4.88533 45.1863 4.84464 45.1823C4.68596 45.1538 4.52728 45.1009 4.37673 45.0358C4.07564 44.9015 3.80303 44.6859 3.59552 44.4133C3.48973 44.279 3.40022 44.1284 3.33105 43.9657C3.26595 43.807 3.21305 43.6361 3.19271 43.4571L3.1805 43.392C3.1805 43.3676 3.1805 43.3472 3.17643 43.3228C3.17237 43.2781 3.17237 43.2333 3.1683 43.1885V40.9059C3.18864 34.1802 3.24967 26.7384 3.23747 20.0127C3.23747 19.0972 3.24153 18.0718 3.25374 16.957C3.39615 16.9692 3.57111 16.957 3.79082 16.9651C6.48437 17.0587 8.89717 16.5908 11.5988 16.6437C13.9791 16.6925 16.221 17.0913 18.6013 17.0668C20.892 17.0465 23.5367 16.8919 25.8193 16.8431C27.2678 16.8105 29.5301 16.8593 30.9785 16.8838C35.617 16.9489 39.344 16.6233 44.43 16.7047C44.4829 16.7047 44.5317 16.7047 44.5765 16.7007V26.714C44.5846 32.5283 44.6009 36.3326 44.6172 39.018C44.6294 40.3607 44.6416 41.4227 44.6497 42.3178C44.6538 42.5416 44.6578 42.7532 44.6619 42.9607V43.3106Z" fill="#583B39"/>
<path d="M34.0627 46.5005C33.2367 46.5005 32.4311 46.5005 31.6499 46.4923L17.5311 46.2279C15.2933 46.2197 13.1205 46.2157 11.0048 46.2157L7.87587 46.2238C7.3754 46.236 6.85053 46.2238 6.34193 46.2279H5.16605C5.03585 46.2279 4.87309 46.2116 4.71034 46.1831C4.08781 46.0814 3.49377 45.7722 3.04213 45.3083C2.59457 44.8526 2.29754 44.2586 2.19989 43.6401C2.17548 43.4651 2.16327 43.3146 2.16327 43.1641C2.16327 43.0461 2.16327 42.9281 2.16327 42.8101C2.16327 42.5497 2.16327 42.3096 2.1592 42.0655C2.1592 41.5772 2.1592 41.0971 2.15107 40.6129V40.3078C2.13479 38.4727 2.11852 36.654 2.10631 34.8556C2.04121 27.5765 1.97611 20.037 2.00866 11.6675L2.02086 9.07157C2.03307 8.78676 2.06969 8.53856 2.13479 8.31071C2.19989 8.06251 2.29754 7.82652 2.41961 7.61088C2.5376 7.39523 2.68815 7.18365 2.86311 6.98835C3.0462 6.78898 3.24557 6.61809 3.46122 6.47975C3.68907 6.3292 3.92506 6.21121 4.16919 6.12576C4.4418 6.03625 4.7022 5.97929 4.9504 5.95894C5.03178 5.95487 5.09688 5.9508 5.16198 5.9508H5.32473H5.62989C6.19138 5.9508 6.76102 5.9508 7.33065 5.95487L7.34692 4.44128C7.34692 4.40466 7.34692 4.35584 7.35506 4.30701V4.26225C7.35506 4.22157 7.3632 4.15646 7.3754 4.09543L7.38354 4.05068C7.39168 4.00592 7.39982 3.96523 7.41202 3.92454L7.45271 3.77807C7.46492 3.71703 7.48526 3.67228 7.49747 3.6438L7.52188 3.58276C7.53816 3.53394 7.55036 3.50139 7.56257 3.48104L7.66429 3.27353C7.71312 3.19216 7.76194 3.11078 7.8189 3.03754C7.95724 2.84224 8.11999 2.67135 8.29902 2.53301C8.5106 2.37026 8.70997 2.25633 8.91341 2.17496C9.1494 2.08544 9.38132 2.03255 9.61324 2.01221C9.64986 2.00407 9.71903 2.00407 9.79634 2.00407H9.96723C10.0527 2.01628 10.1096 2.02034 10.1625 2.02848L10.309 2.05289C10.5938 2.12206 10.8176 2.21158 11.017 2.3255C11.2408 2.45977 11.432 2.61846 11.5866 2.79342C11.7575 2.98872 11.8877 3.2003 11.9813 3.42001C12.0016 3.4607 12.026 3.5258 12.0464 3.59497C12.0586 3.62752 12.0667 3.656 12.0749 3.68855L12.1644 4.20936L12.1562 4.50231C12.1522 4.57148 12.1481 4.64879 12.14 4.7261C12.1196 4.99871 12.0911 5.27945 12.0627 5.53986L12.0423 5.75143C12.0342 5.82467 12.026 5.89791 12.022 5.96708C13.7594 5.96708 15.4113 5.96708 16.8476 5.95894L16.8679 4.25818C16.872 4.20122 16.8801 4.1524 16.8883 4.10357L16.9615 3.76586C16.9737 3.72517 16.9818 3.70483 16.99 3.68041L17.0714 3.47291L17.1853 3.25319C17.23 3.17181 17.2789 3.09451 17.3399 3.02127C17.4782 2.82597 17.6369 2.65915 17.8159 2.52488C18.0194 2.37026 18.2228 2.25227 18.4222 2.17089C18.6663 2.08138 18.8982 2.02848 19.122 2.00814C19.1586 2 19.236 2 19.3051 2H19.476C19.5574 2.01221 19.6184 2.01628 19.6713 2.02441L19.8219 2.04883C20.0945 2.11393 20.3223 2.20344 20.5258 2.32144C20.7495 2.45571 20.9367 2.61032 21.0954 2.78935C21.2622 2.98058 21.3924 3.18809 21.4901 3.41187C21.5145 3.47697 21.5348 3.53394 21.5552 3.5909C21.5633 3.61938 21.5755 3.65193 21.5837 3.68448L21.6284 3.86351C21.6406 3.90827 21.6447 3.92861 21.6488 3.95302L21.6691 4.14019C21.6691 4.14019 21.6732 4.20936 21.6732 4.25412V4.50638C21.665 4.56741 21.661 4.62438 21.6569 4.68134C21.6365 4.91326 21.6162 5.11263 21.5999 5.30387L21.5552 5.73923C21.547 5.80026 21.543 5.86129 21.5348 5.92232C23.081 5.91012 24.6515 5.88977 26.2384 5.8735H26.3564C26.3564 5.57648 26.3645 5.27132 26.3645 4.96616L26.3726 4.43314C26.3726 4.40466 26.3726 4.35584 26.3808 4.30701V4.26225C26.3808 4.22157 26.3889 4.15646 26.4011 4.09543L26.4093 4.05068C26.4174 4.00592 26.4255 3.96523 26.4377 3.92454L26.4743 3.774C26.4866 3.73331 26.4947 3.7089 26.5028 3.68855L26.5517 3.56649C26.5598 3.53394 26.5761 3.50139 26.5923 3.46884L26.69 3.2776C26.7388 3.19623 26.7876 3.11485 26.8446 3.04161C26.983 2.84631 27.1457 2.67542 27.3247 2.53708C27.5322 2.3784 27.7357 2.2604 27.935 2.1831C28.1792 2.09358 28.4111 2.04069 28.6349 2.02034C28.6796 2.01221 28.7488 2.01221 28.818 2.01221H28.9929C29.0702 2.02441 29.1231 2.02848 29.1842 2.03662L29.3347 2.06103C29.6195 2.1302 29.8433 2.21972 30.0427 2.33364C30.2665 2.46791 30.4577 2.6266 30.6123 2.80155C30.7913 3.01313 30.9215 3.22064 31.007 3.42815C31.0192 3.44849 31.0355 3.49325 31.0518 3.53801L31.0762 3.60311C31.0884 3.63566 31.0965 3.66414 31.1046 3.69669L31.1413 3.85944C31.1494 3.89606 31.1575 3.93268 31.1657 3.9693C31.1738 4.0344 31.182 4.09543 31.186 4.1524C31.186 4.16867 31.1901 4.22156 31.1901 4.27039V4.48604L31.1738 4.71796C31.1535 5.01498 31.125 5.29573 31.0965 5.55613C31.0843 5.65378 31.0762 5.74736 31.068 5.84095C32.6833 5.82467 34.2905 5.8084 35.8814 5.79212C35.8814 5.52765 35.8855 5.25504 35.8896 4.97836L35.9018 4.27853C35.9099 4.19715 35.918 4.11984 35.9343 4.04661L35.9994 3.76993C36.0116 3.72924 36.0238 3.69262 36.0442 3.64786L36.0604 3.59904C36.0767 3.55021 36.0889 3.51766 36.1011 3.49732L36.2151 3.27353C36.2598 3.19216 36.3086 3.11485 36.3697 3.04161C36.508 2.85038 36.6626 2.68356 36.8376 2.54522C37.0492 2.38247 37.2485 2.26854 37.456 2.18716C37.688 2.09765 37.928 2.04476 38.1518 2.02441C38.1884 2.01628 38.2576 2.01628 38.3349 2.01628H38.5058C38.5912 2.02848 38.6482 2.03255 38.7011 2.04069L38.8516 2.0651C39.1242 2.1302 39.3521 2.21972 39.5555 2.33771C39.7834 2.48012 39.9706 2.63473 40.1252 2.80562C40.292 2.99686 40.4222 3.20436 40.5198 3.42815C40.5443 3.49325 40.5646 3.55021 40.5849 3.60718C40.5931 3.63566 40.6053 3.66821 40.6134 3.70076L40.6582 3.87979C40.6663 3.9164 40.6745 3.95302 40.6785 3.99371C40.6867 4.05068 40.6948 4.10357 40.6989 4.15646C40.6989 4.17274 40.7029 4.22563 40.7029 4.27039L40.6867 4.71796C40.6704 4.92954 40.6501 5.12891 40.6297 5.32014L40.6094 5.54799C40.6012 5.62123 40.5931 5.6904 40.5849 5.7555C40.7884 5.7555 40.9918 5.7555 41.1912 5.7555C41.4557 5.7555 41.7079 5.7555 41.9561 5.75143H42.7699C43.5186 5.78805 44.2672 6.08508 44.8246 6.56519C45.1054 6.80525 45.3495 7.09007 45.5367 7.4115C45.6262 7.55798 45.7035 7.72073 45.7808 7.9079C45.8581 8.11948 45.9069 8.2863 45.9395 8.45312C45.9761 8.62808 46.0005 8.81117 46.0087 8.99427V9.19364V9.27908V9.43777C46.0087 9.70224 46.0005 9.95857 46.0005 10.2149L45.9761 11.7733C45.9395 13.8321 45.8907 15.8787 45.8418 17.9212L45.8296 18.4502C45.7279 22.2992 45.6262 26.2785 45.6018 30.2944C45.5896 32.3736 45.6018 34.5992 45.6425 37.2928L45.7564 43.1518C45.7564 43.1518 45.7564 43.1925 45.7564 43.2332V43.2658C45.7564 43.4733 45.7401 43.6564 45.7035 43.8313C45.675 43.9982 45.6221 44.1813 45.557 44.3643C45.4268 44.7143 45.2274 45.0479 44.9793 45.3287C44.7433 45.6053 44.4381 45.8535 44.1085 46.0326C43.783 46.2157 43.4209 46.3377 43.0303 46.3947C42.9367 46.4069 42.8431 46.4191 42.7414 46.4232L42.4932 46.4313C42.3467 46.4354 42.2043 46.4394 42.066 46.4394C40.943 46.4638 39.8037 46.4801 38.6563 46.4964C37.0288 46.5167 35.5112 46.5249 34.0708 46.5249L34.0627 46.5005ZM13.1083 44.7305C14.4022 44.7305 15.7815 44.7427 17.2463 44.7712C17.6654 44.7794 18.2798 44.7956 18.7884 44.8526L28.879 45.0845C28.9645 45.0723 29.054 45.0601 29.1557 45.052C30.063 44.9787 31.2226 44.9787 32.3416 44.9747H32.6711C36.1784 44.9665 38.7499 44.9503 40.7518 44.9299C41.1668 44.9218 41.5533 44.9177 41.9073 44.9136H41.9521C42.1392 44.9096 42.3183 44.9055 42.4932 44.9055H42.5339C42.5665 44.9055 42.5949 44.9014 42.6194 44.9014C42.6153 44.9014 42.6478 44.9014 42.6763 44.9014C42.7455 44.8974 42.8024 44.8892 42.8635 44.877C43.0995 44.8323 43.3151 44.7468 43.5104 44.6125C43.6976 44.4905 43.8563 44.3237 43.9865 44.1284C44.1207 43.9208 44.2103 43.6889 44.2469 43.4367L44.255 43.3512C44.255 43.3309 44.255 43.3065 44.255 43.2861L44.2102 39.022C44.1899 35.6327 44.1777 31.6087 44.1696 26.7139V17.1075C41.651 17.0749 39.4538 17.14 37.3299 17.201C35.2182 17.2621 33.2245 17.319 30.9744 17.2906L30.3723 17.2783C28.9848 17.2539 27.0847 17.2214 25.8315 17.2499C24.8468 17.2702 23.793 17.3109 22.7311 17.3516C21.3436 17.4045 19.9114 17.4614 18.6053 17.4736C17.2911 17.4899 15.9972 17.3719 14.7481 17.258C13.7227 17.1644 12.6608 17.0708 11.5907 17.0505C10.309 17.0261 9.06396 17.1197 7.85959 17.2132C6.54944 17.315 5.19453 17.4208 3.77859 17.3719C3.7379 17.3719 3.69721 17.3719 3.65652 17.3719C3.64838 18.3281 3.64432 19.2151 3.64432 20.0166C3.65245 24.3987 3.62804 29.1226 3.6077 33.6837C3.59549 36.1372 3.58328 38.5663 3.57515 40.9099L3.58328 43.2861C3.58328 43.2861 3.58735 43.3227 3.58735 43.3512V43.3797C3.61177 43.5302 3.64838 43.6604 3.70942 43.811C3.76231 43.9331 3.83148 44.0551 3.91692 44.1609C4.08781 44.3847 4.30346 44.5556 4.54352 44.6654C4.67372 44.7224 4.79985 44.7631 4.91785 44.7834C4.91785 44.7834 4.94226 44.7834 4.96668 44.7916L5.09688 44.8078C5.09688 44.8078 5.13756 44.8078 5.15791 44.8119H5.33694C5.7072 44.8078 6.06932 44.8038 6.43551 44.7956L8.58384 44.7712C9.95502 44.755 11.4645 44.7387 13.1083 44.7387V44.7305ZM5.24742 6.75643H5.17825C5.11315 6.7605 5.06433 6.76456 5.0155 6.76863C4.83647 6.78491 4.6371 6.8256 4.43366 6.89477C4.2587 6.9558 4.07968 7.04531 3.90879 7.15924C3.7501 7.26503 3.59956 7.39116 3.46122 7.53764C3.33509 7.68005 3.21709 7.8428 3.13165 8.00555C3.03806 8.1683 2.96889 8.34326 2.92007 8.53042C2.87124 8.70131 2.84276 8.88441 2.83462 9.08785V9.21805V9.62493L2.82649 11.6715C2.81021 15.7078 2.81835 19.5487 2.83462 23.2636C2.83462 22.165 2.83462 21.0786 2.83462 20.0126C2.83462 19.093 2.83869 18.0677 2.8509 16.9528V16.5134H2.85904V16.3018C2.87124 15.1463 2.89159 13.9053 2.91193 12.5952L2.96483 9.21398C2.96483 9.14481 2.96483 9.08378 2.96889 9.03496C2.9811 8.90882 2.99331 8.80303 3.01772 8.69318C3.04213 8.58332 3.07061 8.47753 3.1113 8.37581C3.15199 8.27409 3.20082 8.1683 3.25371 8.07065C3.47749 7.66784 3.82334 7.34233 4.23429 7.14296C4.32787 7.09414 4.43773 7.04938 4.54759 7.01683C4.66965 6.98428 4.77951 6.9558 4.88937 6.93952C4.99516 6.92732 5.11315 6.91104 5.23928 6.91511H5.40204C5.47528 6.91511 5.54444 6.91511 5.61361 6.91918L8.09151 6.94359C8.09965 6.88663 8.11186 6.82967 8.12 6.7727H7.73346C7.02549 6.76456 6.32159 6.7605 5.62989 6.7605H5.25149L5.24742 6.75643ZM44.9833 16.253V19.1337C44.9915 18.8896 44.9955 18.6414 45.0037 18.3973L45.0159 17.8683C45.0647 15.8258 45.1135 13.7873 45.1501 11.7285L45.1746 10.1783C45.1746 9.92602 45.1746 9.66562 45.1827 9.40115V9.00647C45.1746 8.86813 45.1583 8.72573 45.1298 8.59146C45.1054 8.46532 45.0647 8.33512 45.0077 8.17644C44.9548 8.04217 44.8897 7.91604 44.8246 7.80618C44.6782 7.56205 44.4951 7.34233 44.2794 7.15924C43.8563 6.79305 43.2907 6.56926 42.7251 6.54485H42.6112H41.9521C41.7039 6.54892 41.4475 6.54892 41.1831 6.54892C40.8372 6.54892 40.4792 6.54892 40.1211 6.54892H39.6735L39.7305 5.99556C39.7468 5.8206 39.7671 5.63344 39.7915 5.43814L39.8119 5.21842C39.8282 5.03126 39.8485 4.83595 39.8648 4.63658L39.881 4.25005V4.20936C39.877 4.16867 39.8688 4.12391 39.8607 4.08323L39.8037 3.84724C39.7915 3.80655 39.7793 3.76993 39.7631 3.72924C39.702 3.5909 39.6166 3.45256 39.5067 3.32643C39.4091 3.21657 39.2789 3.11078 39.1324 3.0172C39.0063 2.94396 38.8476 2.88293 38.6808 2.84224L38.5587 2.82597C38.5261 2.8219 38.4895 2.81783 38.457 2.81376H38.3756H38.3227C38.2942 2.81376 38.2657 2.81376 38.2373 2.81376C38.0501 2.83004 37.8873 2.86665 37.7327 2.92769C37.6025 2.97651 37.4682 3.05789 37.3218 3.16775C37.216 3.25319 37.1102 3.36712 37.0085 3.50952C36.9637 3.56649 36.9352 3.61531 36.9108 3.66414L36.7277 4.12798V4.18088C36.7114 4.23784 36.7033 4.27446 36.7033 4.31108V4.38432C36.7033 4.38432 36.6992 4.41687 36.6952 4.44128V4.96616C36.687 5.31607 36.683 5.65378 36.683 5.97929C36.683 6.05659 36.683 6.12983 36.6789 6.20307L36.6545 6.58147H36.2761C34.4085 6.60588 32.5124 6.62623 30.6123 6.6425H30.1648L30.2054 6.199C30.2258 5.96708 30.2502 5.71888 30.2787 5.45034C30.3072 5.19808 30.3356 4.92547 30.356 4.64879L30.3763 4.32735V4.27446L30.7791 4.20529L30.3723 4.2297C30.3641 4.1646 30.3641 4.12391 30.356 4.08323L30.299 3.8513C30.299 3.8513 30.2868 3.82282 30.2787 3.79434C30.2746 3.78213 30.2705 3.76586 30.2624 3.75365C30.1973 3.59497 30.1078 3.45663 29.9939 3.32236C29.9003 3.21657 29.7701 3.11078 29.6236 3.02127C29.4975 2.94803 29.3429 2.887 29.172 2.84224L29.054 2.82597C29.0173 2.8219 28.9807 2.81783 28.9441 2.81376H28.8749H28.818C28.7895 2.81376 28.761 2.81376 28.7285 2.81376C28.5494 2.83004 28.3908 2.86665 28.2239 2.92769C28.1019 2.97651 27.9635 3.05789 27.8211 3.16775C27.7113 3.25726 27.6014 3.37119 27.5038 3.50952C27.4631 3.56649 27.4264 3.62752 27.3939 3.68448L27.284 3.92861C27.284 3.92861 27.2759 3.95709 27.2678 3.97337L27.2108 4.22156C27.2108 4.22156 27.2027 4.26225 27.2027 4.27853L27.1864 4.97429C27.1864 5.312 27.1864 5.65785 27.1783 5.98336V6.63436C27.1783 6.63436 27.1823 6.60588 27.1864 6.59368C27.2962 5.96301 27.402 5.3649 27.3898 4.75051C27.3898 4.68134 27.3898 4.61624 27.3898 4.55114V4.49417C27.3898 4.46976 27.3858 4.44128 27.3858 4.41687V4.25005C27.3858 4.25005 27.3858 4.19308 27.402 4.13205L27.4468 3.94489C27.4753 3.84317 27.5282 3.71703 27.6055 3.59497C27.6991 3.4607 27.7926 3.35898 27.8944 3.27353L28.049 3.16368C28.049 3.16368 28.0937 3.1352 28.1222 3.11892L28.3094 3.0172L28.639 2.96024C28.6634 2.96024 28.6837 2.95617 28.7 2.95617H28.8383L29.0621 2.98058C29.0987 2.98465 29.1313 2.99279 29.1598 3.00092C29.2208 3.00906 29.3022 3.04161 29.3551 3.06603L29.4039 3.08637C29.4893 3.12706 29.5463 3.15961 29.6033 3.2003C29.7579 3.29795 29.9084 3.4607 30.0264 3.656L30.0834 3.76179C30.1037 3.79841 30.12 3.83503 30.1281 3.87165C30.1525 3.93268 30.1648 3.97337 30.1729 4.00999L30.2054 4.17681C30.2136 4.25412 30.2176 4.2948 30.2176 4.34363V4.53079C30.2176 4.56334 30.2136 4.63251 30.2095 4.69761L30.1973 5.12077C30.1892 5.30387 30.1851 5.47476 30.181 5.6253C30.1648 6.199 30.1688 6.73608 30.1892 7.2691C30.1892 7.23248 30.1892 7.19993 30.1892 7.16331V6.76456L30.592 6.7605C32.3741 6.74015 34.2376 6.73201 36.2883 6.73201H36.6789C36.687 6.68726 36.6952 6.6425 36.7033 6.59774C36.8172 5.96301 36.923 5.36083 36.9108 4.74237C36.9108 4.68541 36.9068 4.61217 36.9068 4.53893C36.9068 4.49417 36.9068 4.45349 36.9068 4.40873V4.37618L36.9108 4.20936C36.9108 4.20122 36.9108 4.1646 36.923 4.11171L36.9596 3.94489C37.0003 3.81875 37.0532 3.70076 37.1224 3.5909C37.2038 3.46477 37.3055 3.35491 37.4194 3.2654L37.5862 3.1352L37.8141 3.03754L37.9972 3.40374L37.8792 3.01313C37.8792 3.01313 37.8548 3.02127 37.8385 3.02941L38.0297 2.97244L38.3552 2.94803L38.6726 2.99279C38.7458 3.00906 38.8069 3.03348 38.8516 3.04975L38.9289 3.08637C38.994 3.11892 39.051 3.1474 39.108 3.18809C39.2829 3.30202 39.4335 3.46884 39.5393 3.656L39.5759 3.71703C39.5881 3.73738 39.6044 3.76993 39.6206 3.81062L39.6857 4.00592L39.2992 4.14426L39.698 4.06288C39.7061 4.09543 39.7183 4.14833 39.7183 4.20936C39.7264 4.24598 39.7305 4.29073 39.7305 4.33956V4.49011C39.7264 4.56741 39.7264 4.61624 39.7264 4.66506L39.7061 5.29573C39.7061 5.41779 39.6979 5.53172 39.6939 5.63751C39.6776 6.21121 39.6857 6.75643 39.7061 7.29351C39.7061 7.24468 39.7061 7.19586 39.7061 7.14703V6.74015H40.6256C41.2441 6.74422 41.8585 6.74422 42.4688 6.74422C42.6438 6.74422 42.7699 6.74422 42.9245 6.76456C43.0832 6.78491 43.2337 6.82153 43.3761 6.87035C43.665 6.968 43.9417 7.12262 44.1655 7.31385C44.3974 7.50916 44.5927 7.75328 44.7311 8.01369C44.8694 8.26595 44.967 8.56297 44.9996 8.86813C44.9996 8.88848 45.0037 8.91289 45.0077 8.9373C45.0159 9.00647 45.0159 9.05937 45.0159 9.10413V10.6584C45.0118 11.8424 45.0118 13.0102 45.0118 14.1535C45.0118 14.8086 45.0118 15.4515 45.0118 16.0943V16.2611L44.9833 16.253ZM14.7888 16.4442C14.7888 16.4442 14.8091 16.4442 14.8213 16.4442C16.0501 16.5541 17.3236 16.668 18.5972 16.6558C19.891 16.6436 21.3192 16.5907 22.6985 16.5338C23.7645 16.4931 24.8224 16.4524 25.8111 16.432C27.0806 16.4036 28.9889 16.4361 30.3845 16.4605L30.9866 16.4727C32.1178 16.489 33.1879 16.4809 34.2376 16.4605C33.9325 16.4605 33.6354 16.4605 33.3425 16.4605C32.6996 16.4687 31.8899 16.4198 30.95 16.371C29.8637 16.31 28.6308 16.2449 27.3695 16.2367C26.2831 16.2286 25.1723 16.2856 24.0005 16.3466C22.7839 16.4076 21.5267 16.4727 20.2532 16.4605C18.3978 16.4483 16.4977 16.4402 14.7847 16.4361L14.7888 16.4442ZM3.74604 10.7642L3.71755 12.6033C3.70128 13.7466 3.685 14.8371 3.6728 15.8583C3.81114 15.8543 3.94541 15.8543 4.07561 15.8543C6.0327 15.838 6.63081 15.7973 7.26555 15.7566C8.08338 15.6997 8.92562 15.6427 12.6038 15.6305C14.7766 15.6223 17.5677 15.6346 20.2613 15.6508C21.5063 15.663 22.7555 15.5979 23.9639 15.5369C25.1479 15.4759 26.2668 15.427 27.3776 15.427C28.6593 15.4352 29.9003 15.5003 30.9948 15.5613C31.9184 15.6101 32.72 15.6549 33.3343 15.6508C34.5387 15.6386 35.8326 15.663 37.0858 15.6834C37.8182 15.6956 38.5465 15.7078 39.2463 15.7159C40.1089 15.7281 40.825 15.6915 41.5208 15.659C42.3915 15.6183 43.2134 15.5817 44.1696 15.6386C44.1696 15.1463 44.1696 14.6499 44.1696 14.1454C44.1696 13.002 44.1696 11.8343 44.1736 10.6503V9.09599C44.1736 9.09599 44.1736 9.06751 44.1736 9.0553C44.1736 9.03496 44.1696 9.01054 44.1655 8.98206C44.1411 8.75421 44.08 8.56297 43.9865 8.39615C43.8929 8.21713 43.7586 8.05844 43.6081 7.92824C43.4575 7.80211 43.2785 7.70039 43.0832 7.63529C42.9896 7.60274 42.896 7.58239 42.7902 7.56612C42.6763 7.55391 42.5827 7.55391 42.4363 7.55391C41.8259 7.55391 41.2115 7.55391 40.589 7.54984H40.4792C40.471 7.94045 40.4588 8.33512 40.4466 8.72979C40.4344 9.09599 40.4222 9.45811 40.4141 9.80803C40.4141 9.93416 40.41 10.0481 40.4141 10.1579L40.4222 10.5038C40.4222 10.5282 40.4222 10.5648 40.4141 10.6055C40.3896 10.9229 40.3123 11.224 40.1781 11.4925C40.0316 11.7855 39.8322 12.0296 39.5759 12.2249C39.2911 12.4365 38.9656 12.5667 38.6279 12.6074H38.5831C38.5831 12.6074 38.5343 12.6155 38.4895 12.6074C38.457 12.6074 38.4285 12.6074 38.4 12.5992C38.3349 12.5911 38.2373 12.5789 38.1315 12.5219C38.0623 12.4894 38.0013 12.4446 37.9524 12.3917H37.9443H37.9158H37.8019L37.7205 12.3836C37.574 12.3632 37.452 12.3185 37.338 12.2697C37.0329 12.1395 36.7766 11.9482 36.5609 11.7082C36.3941 11.521 36.2924 11.346 36.211 11.1955C36.1378 11.0409 36.0889 10.9147 36.0442 10.7683L36.0279 10.6991C36.0238 10.6788 36.0157 10.6584 36.0075 10.6299L35.9953 10.5567C35.9913 10.5323 35.9872 10.5038 35.9831 10.4834V10.4387C35.9831 10.4387 35.9791 10.4387 35.975 10.4346L35.9669 10.3817C35.918 9.98705 35.8651 9.45811 35.8529 7.77363V7.54577C34.1156 7.54577 32.5084 7.55391 30.9704 7.57019C30.9622 7.95672 30.95 8.34733 30.9378 8.73793C30.9256 9.10006 30.9134 9.46218 30.9053 9.80803C30.9053 9.93416 30.9053 10.044 30.9053 10.1539V10.5526C30.889 10.8985 30.8076 11.2077 30.6693 11.4884C30.5187 11.7855 30.3194 12.0337 30.0671 12.2208C29.7904 12.4283 29.4649 12.5626 29.1231 12.5992H29.0784C29.0784 12.5992 29.0255 12.6074 28.9848 12.5992C28.9522 12.5992 28.9197 12.5992 28.879 12.5911C28.8424 12.5911 28.7407 12.5789 28.6308 12.5178C28.5616 12.4853 28.4965 12.4405 28.4436 12.3836H28.4111C28.4111 12.3836 28.3663 12.3917 28.3419 12.3917L28.2239 12.3795C28.0775 12.3632 27.9554 12.3144 27.8415 12.2656C27.5322 12.1313 27.28 11.9523 27.0603 11.7041C26.8894 11.5129 26.7876 11.3338 26.7103 11.1833C26.629 11.0124 26.5801 10.8781 26.5435 10.752L26.4825 10.4712L26.4703 10.3777C26.4215 9.98299 26.3686 9.45404 26.3564 7.76956V7.62308L21.4697 7.68818C21.4616 8.04217 21.4494 8.39615 21.4372 8.75014C21.425 9.10819 21.4128 9.46218 21.4046 9.80396C21.4046 9.93009 21.4006 10.044 21.4046 10.1498L21.4128 10.4957C21.4128 10.5201 21.4128 10.5567 21.4046 10.5974C21.3802 10.9147 21.3029 11.2158 21.1686 11.4844C21.0222 11.7773 20.8228 12.0215 20.5665 12.2168C20.2816 12.4283 19.9561 12.5585 19.6184 12.5992H19.5737C19.5737 12.5992 19.5248 12.6074 19.4842 12.5992C19.4557 12.5992 19.4272 12.5992 19.3987 12.5911C19.3377 12.587 19.24 12.5748 19.1424 12.5219C19.0691 12.4853 19.004 12.4405 18.9511 12.3836H18.943H18.9145C18.886 12.3836 18.8657 12.3836 18.8454 12.3836L18.7192 12.3714C18.5687 12.351 18.4344 12.2981 18.3368 12.2574C18.0357 12.1272 17.7793 11.9441 17.5596 11.7C17.3887 11.5088 17.287 11.3298 17.2056 11.1792C17.1202 11.0043 17.0714 10.8659 17.0388 10.7642L17.0266 10.7032C17.0266 10.7032 17.0103 10.6543 17.0022 10.6137L16.99 10.5445L16.9696 10.4834V10.4265L16.9615 10.3736C16.9127 9.97892 16.8598 9.44997 16.8476 7.76549V7.73701C14.9963 7.75735 13.4257 7.76549 11.9609 7.76142C11.9528 8.09913 11.9406 8.44091 11.9284 8.77862C11.9162 9.12447 11.904 9.47032 11.8958 9.79989C11.8958 9.91789 11.8958 10.0359 11.8958 10.1457V10.5404C11.8796 10.8863 11.7982 11.1955 11.6558 11.4762C11.5093 11.7692 11.3059 12.0174 11.0577 12.2086C10.7729 12.4202 10.4473 12.5504 10.1096 12.5911H10.0649C10.0649 12.5911 10.0161 12.5952 9.9713 12.5911C9.93468 12.5911 9.90213 12.5911 9.86144 12.5829C9.82482 12.5829 9.7231 12.5707 9.61324 12.5097C9.54408 12.4772 9.47897 12.4324 9.42608 12.3754L9.29181 12.3836L9.20636 12.3714C9.05989 12.3551 8.93782 12.3063 8.8239 12.2574C8.51467 12.1232 8.25427 11.936 8.04269 11.696C7.87587 11.5047 7.77822 11.3338 7.69684 11.1833C7.61139 11.0002 7.5585 10.87 7.52595 10.7439C7.51781 10.7113 7.50968 10.6828 7.50154 10.6584C7.50154 10.6462 7.4934 10.634 7.48933 10.6177L7.46085 10.4631L7.44864 10.3695C7.39982 9.97485 7.34692 9.4459 7.33472 7.76142V7.73294L5.5892 7.71666C5.51596 7.7126 5.46307 7.71666 5.40611 7.71666H5.22708C5.13756 7.71666 5.07246 7.7248 5.00329 7.73294C4.92599 7.74108 4.85275 7.76549 4.78358 7.78176C4.73068 7.79804 4.66152 7.82652 4.59641 7.85907C4.33601 7.98521 4.10816 8.20085 3.96982 8.44905C3.93727 8.51008 3.90065 8.57925 3.87624 8.64842C3.85182 8.71759 3.83148 8.78676 3.8152 8.86C3.79893 8.92917 3.79079 9.0024 3.78265 9.07564C3.78265 9.10413 3.78265 9.15702 3.78265 9.21398L3.75824 10.752L3.74604 10.7642ZM38.3634 11.0571C38.4 11.0856 38.4244 11.1182 38.4488 11.1507C38.4977 11.1345 38.5546 11.1141 38.6116 11.0856C38.6767 11.049 38.7458 10.9961 38.811 10.931C38.8638 10.8781 38.9045 10.8171 38.9534 10.7194C38.9818 10.6584 39.0022 10.5852 39.0144 10.4997C39.0144 10.4387 39.0185 10.3939 39.0225 10.3573V10.2515C39.0144 10.2271 39.0144 10.1986 39.0144 10.1702L38.994 9.77548C38.9818 9.49473 38.9656 9.22619 38.9493 8.95358L38.9412 8.78676C38.8801 7.73294 38.8232 6.73608 38.8557 5.60089C38.8598 5.49103 38.8638 5.38117 38.8679 5.26725L38.8883 4.64879C38.8883 4.59589 38.8883 4.52672 38.8923 4.45756L38.8028 4.04661C38.7621 3.9693 38.697 3.90013 38.6279 3.85944L38.3959 3.76586C38.3959 3.76586 38.3959 3.76586 38.3756 3.76586H38.3675C38.3675 3.76586 38.339 3.76586 38.3227 3.76586H38.2291H38.2088L38.1599 3.774C38.1396 3.77807 38.1233 3.78213 38.107 3.7862L37.9036 3.90013C37.8589 3.93675 37.8182 3.98151 37.7856 4.03033C37.7571 4.07509 37.7327 4.12798 37.7164 4.18088L37.692 4.29887C37.692 4.29887 37.692 4.32328 37.692 4.33549C37.692 4.3599 37.692 4.38432 37.692 4.4128C37.692 4.43314 37.692 4.45756 37.692 4.4779V4.52266C37.692 4.58776 37.692 4.65286 37.6961 4.71389C37.7124 5.42593 37.5944 6.09728 37.4764 6.74422C37.3828 7.27723 37.2933 7.78176 37.2729 8.2985C37.2485 8.90475 37.334 9.47845 37.4276 10.0888L37.4764 10.3451C37.4764 10.3451 37.4886 10.3817 37.4927 10.3939L37.5049 10.4183C37.5496 10.516 37.5944 10.5811 37.6432 10.6381C37.692 10.691 37.7531 10.7439 37.81 10.7805C37.8914 10.8415 37.9524 10.8781 38.0135 10.8985L38.0664 10.9147C38.0908 10.9188 38.1152 10.9229 38.1355 10.931L38.2373 10.9717C38.2373 10.9717 38.2739 10.992 38.2942 11.0043L38.3593 11.0531L38.3634 11.0571ZM9.75972 11.0043L9.80041 11.0246L9.85737 11.0816C9.87772 11.1019 9.89806 11.1263 9.9184 11.1548C9.96723 11.1426 10.0242 11.1223 10.073 11.0938C10.1503 11.0531 10.2154 11.0043 10.2805 10.9351C10.3334 10.8822 10.3741 10.8212 10.4148 10.7357C10.4514 10.6665 10.4718 10.5974 10.488 10.4916V10.3044C10.488 10.2637 10.488 10.223 10.488 10.1783L10.4677 9.78361C10.4555 9.50287 10.4392 9.23433 10.4229 8.96579C10.3619 7.91604 10.2968 6.82967 10.3294 5.61309C10.3294 5.45848 10.3375 5.28352 10.3456 5.09636V4.99464C10.3538 4.88885 10.3578 4.77899 10.3578 4.6732L10.366 4.46976L10.3171 4.13205C10.3171 4.13205 10.2968 4.09543 10.2887 4.07509L10.2765 4.05881C10.2358 3.98151 10.1707 3.91234 10.1015 3.87165C10.069 3.84724 10.0486 3.84317 10.0323 3.83503L9.99571 3.81468C9.99571 3.81468 9.96316 3.80248 9.95096 3.79841L9.8411 3.774C9.8411 3.774 9.82482 3.76993 9.81668 3.76586L9.84517 3.68041L9.86144 3.36712L9.79634 3.76993H9.69869C9.68648 3.76993 9.67428 3.76993 9.66207 3.774H9.64173C9.64173 3.774 9.60511 3.7862 9.58476 3.79027L9.55221 3.80248C9.55221 3.80248 9.55221 3.79841 9.54814 3.79841L9.39353 3.88792L9.27147 3.68448L9.15347 3.56649L9.37725 3.90827C9.32843 3.94489 9.28774 3.99371 9.24705 4.04661C9.23078 4.07509 9.20636 4.12798 9.18195 4.20122L9.17381 4.2297C9.17381 4.2297 9.17381 4.26632 9.16568 4.2826V4.30294C9.16568 4.30294 9.16161 4.33956 9.15754 4.35584V4.40466C9.15754 4.44535 9.15754 4.49011 9.15754 4.53079L9.16568 4.72203C9.18195 5.43407 9.06396 6.10135 8.94596 6.74829C8.85238 7.2813 8.76287 7.78583 8.74252 8.30257C8.71811 8.90882 8.80355 9.48659 8.89714 10.0969L8.92562 10.2759C8.93376 10.3004 8.93782 10.3248 8.94189 10.341C8.95003 10.3614 8.95817 10.3817 8.96631 10.4021L8.97851 10.4265C9.02734 10.5201 9.06803 10.5852 9.12092 10.6462C9.16161 10.695 9.22671 10.7479 9.29181 10.7967C9.36912 10.8537 9.43015 10.8903 9.49118 10.9147L9.54001 10.931C9.56442 10.9351 9.58883 10.9432 9.60918 10.9473L9.75565 11.0165L9.75972 11.0043ZM28.8139 11.0205H28.822L28.879 11.0816C28.8994 11.1019 28.9197 11.1263 28.94 11.1548C28.9889 11.1426 29.0458 11.1223 29.0947 11.0938C29.1679 11.0531 29.233 11.0043 29.29 10.9432C29.351 10.8781 29.3957 10.813 29.4324 10.7357C29.4649 10.6706 29.4853 10.6096 29.5015 10.516C29.5015 10.4916 29.5056 10.4631 29.5097 10.4346V10.3085C29.5056 10.2678 29.5056 10.223 29.5056 10.1824C29.4975 10.0644 29.4893 9.91789 29.4853 9.77548L29.4364 8.91289C29.3713 7.81838 29.3103 6.78898 29.3469 5.61309C29.3469 5.45848 29.3551 5.28759 29.3632 5.10043L29.3754 4.661C29.3795 4.59996 29.3754 4.54707 29.3754 4.49824V4.41687L29.3673 4.25818C29.3591 4.2297 29.351 4.20122 29.3469 4.17681L29.3347 4.14426C29.3347 4.14426 29.3144 4.10764 29.3022 4.07916L29.294 4.06695C29.2289 3.95302 29.1557 3.89606 29.115 3.87165C29.0825 3.84724 29.0621 3.84317 29.0458 3.83503L29.0092 3.81468C29.0092 3.81468 28.9807 3.80248 28.9685 3.79841L28.8587 3.774C28.8587 3.774 28.8302 3.774 28.8098 3.76993H28.7163C28.7041 3.76993 28.6918 3.76993 28.6796 3.76993H28.6471C28.6471 3.76993 28.6186 3.78213 28.6064 3.7862L28.5698 3.79841C28.5698 3.79841 28.5698 3.79434 28.5657 3.79434L28.4477 3.85537C28.4477 3.85537 28.4314 3.86351 28.4233 3.87165L28.3867 3.90013C28.346 3.93268 28.3012 3.98557 28.2646 4.03847C28.2443 4.07102 28.2199 4.12798 28.2077 4.17681L28.1955 4.22156C28.1955 4.24598 28.1873 4.26632 28.1832 4.29073V4.40873C28.1832 4.46569 28.1873 4.49417 28.1873 4.51859C28.1873 4.57555 28.1914 4.65693 28.1914 4.73423C28.2036 5.41779 28.0897 6.08508 27.9757 6.72795C27.8822 7.26503 27.7926 7.76956 27.7723 8.29443C27.7479 8.90475 27.8333 9.48252 27.9269 10.0928L27.9554 10.2719C27.9635 10.3004 27.9676 10.3248 27.9717 10.3451C27.9717 10.3532 27.9757 10.3573 27.9798 10.3655L28.0042 10.4224C28.049 10.5119 28.0897 10.577 28.1466 10.6421C28.1873 10.691 28.2524 10.7439 28.3175 10.7927C28.3948 10.8496 28.4559 10.8863 28.5169 10.9107L28.5616 10.9229C28.5901 10.931 28.6186 10.9351 28.643 10.9432L28.818 11.0246L28.8139 11.0205ZM19.3417 11.0571C19.3743 11.0856 19.4028 11.1182 19.4272 11.1507C19.476 11.1345 19.533 11.1141 19.5859 11.0856C19.651 11.049 19.7201 10.9961 19.7852 10.931C19.8422 10.8741 19.887 10.809 19.9195 10.7316C19.9521 10.6584 19.9765 10.5852 19.9887 10.4997L19.9968 10.337V10.3085C19.9968 10.2637 19.9968 10.2393 19.9928 10.219C19.9846 10.0522 19.9765 9.91382 19.9724 9.77955C19.9602 9.4988 19.9439 9.23026 19.9277 8.95765L19.9195 8.79083C19.8585 7.73701 19.8015 6.74015 19.8341 5.60496C19.8422 5.41779 19.8503 5.21435 19.8544 4.99464L19.8707 4.3599V4.33549V4.30701C19.8625 4.29887 19.8626 4.27446 19.8585 4.25005L19.8463 4.20122C19.8463 4.20122 19.8341 4.16867 19.83 4.14833C19.83 4.14426 19.8259 4.13612 19.8219 4.13205L19.7812 4.05474C19.7405 3.97744 19.6754 3.90827 19.6062 3.86758L19.3377 3.76993C19.3377 3.76993 19.3133 3.76993 19.3011 3.76993H19.2115C19.1993 3.76993 19.1871 3.76993 19.1749 3.774H19.1424C19.1424 3.774 19.118 3.7862 19.1058 3.79027L18.9308 3.86758C18.9308 3.86758 18.9308 3.86758 18.9227 3.87165L18.882 3.9042C18.8413 3.93675 18.8006 3.98151 18.7558 4.04254C18.7355 4.07509 18.7111 4.12798 18.6948 4.18088L18.6704 4.2948C18.6704 4.2948 18.6704 4.29887 18.6704 4.30294V4.4128C18.6704 4.43314 18.6704 4.45756 18.6704 4.4779L18.6785 4.7383C18.6907 5.42593 18.5727 6.09728 18.4588 6.74422C18.3652 7.27723 18.2757 7.78176 18.2554 8.2985C18.235 8.92103 18.3245 9.51101 18.4181 10.1376L18.4547 10.3288C18.4629 10.3532 18.471 10.3736 18.4792 10.398L18.4914 10.4224C18.5402 10.5201 18.5809 10.5811 18.6297 10.634C18.6867 10.695 18.7436 10.7479 18.8006 10.7845C18.882 10.8456 18.9471 10.8822 19.0081 10.9066L19.0569 10.9229C19.0813 10.9269 19.1058 10.931 19.1261 10.9392L19.3092 11.0246L19.3458 11.0612L19.3417 11.0571ZM35.975 10.4143C35.975 10.4143 35.975 10.4143 35.975 10.4183V10.4143ZM20.6397 6.74015C20.6397 6.93545 20.6478 7.12669 20.656 7.31792C20.656 7.30978 20.656 7.30165 20.656 7.28944V6.8907L27.1335 6.80118C27.1416 6.75643 27.1498 6.71574 27.1579 6.67098L26.2424 6.67912C24.501 6.6954 22.7758 6.71574 21.0873 6.73201H20.6438L20.6397 6.74015ZM11.1309 6.77677C11.1309 6.94766 11.139 7.11448 11.1431 7.27723V6.95987H11.7005C13.3443 6.96394 15.1021 6.9558 17.2382 6.93139H17.6003C17.6084 6.87442 17.6166 6.82153 17.6288 6.76863H17.1894C15.5496 6.77677 13.6129 6.78084 11.5663 6.77677H11.1309ZM10.1178 2.99279C10.1992 3.00906 10.2602 3.03754 10.309 3.05789L10.3578 3.07823C10.4433 3.11892 10.5002 3.15147 10.5572 3.19216C10.7159 3.29388 10.8746 3.46477 10.9844 3.656L11.0333 3.75772C11.0333 3.75772 11.0495 3.7862 11.0617 3.81468L11.0902 3.89606C11.0984 3.92047 11.1146 3.96523 11.1228 4.00999C11.1268 4.02626 11.135 4.04661 11.139 4.07102C11.1472 4.09543 11.1594 4.14833 11.1594 4.21343C11.1675 4.25412 11.1716 4.29887 11.1716 4.34363L11.1635 4.69761C11.1635 4.78713 11.1635 4.90512 11.1553 5.02312V5.12484C11.1431 5.30793 11.139 5.47882 11.135 5.62937C11.1228 6.00777 11.1228 6.37803 11.1309 6.73201L11.1635 6.33734C11.1797 6.1339 11.2041 5.90605 11.2286 5.66192L11.2489 5.44627C11.2774 5.18994 11.3059 4.9214 11.3262 4.64065C11.3343 4.56334 11.3384 4.50231 11.3425 4.44128V4.27039C11.3425 4.25005 11.3425 4.22563 11.3425 4.20529C11.3425 4.18495 11.3384 4.16053 11.3343 4.14019L11.2692 3.84724C11.257 3.81468 11.2489 3.78213 11.2326 3.74958C11.1635 3.58276 11.078 3.44849 10.9682 3.32236C10.8705 3.2125 10.7403 3.10671 10.5938 3.0172C10.4677 2.94396 10.3131 2.88293 10.1422 2.83817L10.0242 2.8219C9.99164 2.81783 9.95502 2.81376 9.92247 2.80969H9.8411H9.7882C9.75972 2.80969 9.73124 2.80969 9.70683 2.80969C9.51966 2.82597 9.36098 2.86259 9.2023 2.92362C9.07209 2.97244 8.93782 3.05382 8.79135 3.16368C8.68149 3.25319 8.57163 3.36712 8.47398 3.50546C8.43329 3.56242 8.39667 3.62345 8.36412 3.68041L8.23799 3.97744L8.18103 4.21343C8.18103 4.21343 8.17289 4.25412 8.17289 4.27039L8.16068 4.95802L8.14848 6.64657C8.14848 6.64657 8.15661 6.60995 8.15661 6.59368C8.27054 5.95894 8.37633 5.35676 8.36412 4.7383L8.35599 4.53893C8.35599 4.49417 8.35599 4.46976 8.35599 4.44942V4.31922V4.27039C8.35599 4.24191 8.35599 4.18901 8.37226 4.12391C8.37226 4.10357 8.37633 4.08323 8.3804 4.06695L8.41702 3.93675C8.45771 3.80655 8.5106 3.69262 8.5757 3.58683C8.67335 3.44849 8.771 3.3427 8.87679 3.25726L9.08837 3.11078L9.32436 3.44849L9.12906 3.09451L9.2796 3.00499L9.58883 2.9521C9.61731 2.94803 9.6458 2.94396 9.67021 2.94396H9.79227C9.81668 2.94396 9.8411 2.94396 9.86551 2.94396L10.0323 2.96431C10.069 2.96837 10.1015 2.97651 10.13 2.98465L10.1178 2.99279ZM20.6804 4.48604L20.6641 5.01905C20.6641 5.23876 20.6519 5.45034 20.6438 5.63751C20.6316 6.01184 20.6316 6.36989 20.6397 6.72388L20.6722 6.29665C20.6885 6.09728 20.7129 5.88164 20.7373 5.64971L20.7821 5.22249C20.7984 5.03532 20.8187 4.84002 20.835 4.64065C20.835 4.57148 20.8431 4.50231 20.8513 4.43721L20.8431 4.1524C20.8431 4.12798 20.8391 4.10357 20.835 4.07916C20.8269 4.05068 20.8228 4.03033 20.8187 4.00999L20.774 3.84317C20.7618 3.80248 20.7495 3.76586 20.7333 3.72517C20.6722 3.58683 20.5868 3.44849 20.4769 3.32236C20.3752 3.20843 20.2491 3.10264 20.1067 3.0172C19.9765 2.94396 19.8178 2.88293 19.651 2.84224L19.537 2.82597C19.5004 2.81783 19.4638 2.81783 19.4313 2.81376H19.354H19.297C19.2685 2.81376 19.24 2.81376 19.2115 2.81376C19.0284 2.83004 18.8698 2.86665 18.7029 2.92769C18.5809 2.97651 18.4425 3.05789 18.3001 3.16775C18.1903 3.25319 18.0845 3.36305 17.9828 3.50952C17.938 3.56649 17.9095 3.61531 17.8851 3.66414L17.7631 3.92861C17.7631 3.92861 17.7631 3.94082 17.7468 3.97337L17.6857 4.23784C17.6817 4.26225 17.6776 4.28667 17.6735 4.31108V4.38432C17.6735 4.38432 17.6695 4.41687 17.6654 4.44128L17.6491 6.65878C17.6491 6.65878 17.6573 6.62216 17.6573 6.60588C17.7712 5.97115 17.877 5.36897 17.8648 4.75051V4.55114C17.8566 4.50638 17.8566 4.46162 17.8566 4.41687V4.37211C17.8566 4.33142 17.8566 4.29887 17.8566 4.27853L17.877 4.10764C17.8851 4.05068 17.8933 4.03033 17.8973 4.00592L17.9095 3.95302C17.9502 3.82689 18.0031 3.7089 18.0723 3.59904C18.174 3.45256 18.2635 3.35491 18.3693 3.27353L18.5361 3.14333L19.1709 2.96024H19.3051L19.5411 2.98465C19.5696 2.98872 19.594 2.99686 19.6225 3.00499C19.6957 3.02127 19.7568 3.04568 19.8015 3.06196L19.8788 3.09858C19.9439 3.13113 20.0009 3.15961 20.0579 3.2003C20.2328 3.31422 20.3834 3.48104 20.4891 3.66821L20.6356 4.02219L20.2491 4.16053L20.6478 4.07916C20.656 4.11171 20.6682 4.1646 20.6682 4.22563C20.6763 4.24191 20.6844 4.29073 20.6804 4.35177L20.6885 4.46976L20.6804 4.49824V4.48604ZM28.1792 4.33549V4.36397C28.1792 4.36397 28.1792 4.35177 28.1792 4.33549ZM37.6758 4.3477V4.3599C37.6758 4.3599 37.6758 4.35177 37.6758 4.3477ZM29.3062 3.99371C29.3062 3.99371 29.3062 4.0344 29.3103 4.05474L29.3022 3.99371H29.3062ZM28.4396 3.55835L28.5291 3.7211V3.68855L28.407 3.42408L28.4396 3.55835ZM9.41794 3.55835L9.50746 3.7211V3.68855L9.38539 3.42408L9.41794 3.55835ZM17.0754 3.45256C17.0754 3.45256 17.0551 3.48511 17.0469 3.50952L17.0754 3.45256ZM18.5402 3.1474C18.5402 3.1474 18.5198 3.15961 18.5076 3.17181L18.5402 3.1474ZM37.5618 3.1474C37.5618 3.1474 37.5496 3.15554 37.5415 3.15961L37.5618 3.1474Z" fill="#583B39"/>
<path d="M30.0102 27.6376C29.9451 28.3374 29.6521 28.9966 29.3063 29.611C27.988 31.9505 25.8356 33.8018 23.3496 34.8028C21.2094 34.0338 19.4883 32.5771 18.7884 31.6657C18.0194 30.6607 17.5637 29.3546 17.7997 28.1096C18.0357 26.8645 19.0692 25.7456 20.3305 25.6317C21.5918 25.5178 22.8939 26.6285 22.784 27.8939C23.7198 26.5838 25.148 25.6276 26.7145 25.2655C27.6218 25.0539 28.6715 25.0743 29.3551 25.7049C29.8718 26.185 30.0712 26.9337 30.0061 27.6376H30.0102Z" fill="#EC8873"/>
</svg>
