<svg width="52" height="48" viewBox="0 0 52 48" fill="none" xmlns="http://www.w3.org/2000/svg">
<g clip-path="url(#clip0_292_53)">
<path d="M52.4047 22.4772C52.6241 25.3375 51.3616 28.3857 49.4197 31.2245C48.9703 31.8846 48.3872 32.4212 47.6597 32.6788C45.8836 33.312 44.3537 34.4014 42.7007 35.26C40.5929 36.3548 38.5227 36.3333 36.447 35.2225C36.2224 35.099 36.0244 34.9273 35.8105 34.7878C34.9973 34.278 34.6443 34.4121 34.4677 35.3083C34.2698 36.3226 34.0879 37.3368 33.906 38.3511C33.692 39.5424 33.0608 40.503 32.2156 41.3294C32.0337 41.5065 31.8304 41.6729 31.6057 41.7909C30.9424 42.1451 30.3646 41.9734 29.9688 41.3026C29.6103 40.6908 29.2894 40.0576 28.9309 39.4458C28.8026 39.2258 28.6367 39.0219 28.4709 38.8233C27.9948 38.2438 27.6417 38.2652 27.31 38.8824C26.9463 39.5639 26.6092 40.2615 26.2187 40.927C25.9566 41.367 25.6463 41.7802 25.3039 42.1612C25.09 42.4027 24.7529 42.5369 24.432 42.3437C24.1912 42.2042 24.1538 41.9305 24.1859 41.6622C24.2073 41.469 24.2233 41.2758 24.2768 41.0879C25.0632 38.3725 24.8118 35.582 24.9081 32.8129C24.9134 32.6198 24.892 32.4212 24.8385 32.2387C24.8064 32.1421 24.6781 32.0241 24.5871 32.0133C24.4908 32.0026 24.341 32.0938 24.2875 32.1851C24.1164 32.4588 23.988 32.7539 23.8328 33.0383C23.1267 34.3424 22.4045 35.6357 21.7198 36.9558C21.0778 38.2008 20.1363 39.1292 18.9166 39.8054C17.8467 40.401 16.7768 41.0021 15.6106 41.3831C14.5728 41.7212 14.2197 41.5602 13.765 40.5942C13.3531 39.7195 13.0053 38.8126 12.5988 37.9379C12.3046 37.3154 11.9943 37.1544 11.363 37.3476C10.7532 37.5354 10.154 37.7769 9.57629 38.0506C8.70432 38.4584 7.85909 38.936 6.98711 39.3385C6.5859 39.5263 6.14188 39.6497 5.70857 39.7302C5.19502 39.8322 4.88474 39.3761 5.06663 38.8609C5.31271 38.1794 5.73532 37.6159 6.19538 37.0739C7.70395 35.3137 9.21252 33.5481 10.7157 31.788C11.133 31.2996 11.5503 30.8059 11.9568 30.3068C12.2404 29.9526 12.5185 29.5663 12.2778 29.0833C12.0692 28.6754 11.6519 28.6969 11.2721 28.654C10.2503 28.5466 9.22857 28.4447 8.20681 28.3374C6.89617 28.1978 5.72997 27.731 4.70286 26.8723C3.86833 26.1693 2.94821 25.5737 2.16717 24.7955C-0.614589 22.0372 -0.389908 17.7333 1.00632 15.4741C1.68571 14.3793 2.40255 13.3007 3.18894 12.2864C3.97532 11.2722 4.86869 10.333 5.72997 9.37783C6.24888 8.79826 6.85872 8.33674 7.57556 8.00403C8.2817 7.67668 8.91295 7.22053 9.38371 6.5873C10.4857 5.1008 12.021 4.84321 13.7008 5.07397C16.4184 5.44962 18.6919 6.74829 20.575 8.68556C21.4683 9.60322 22.2012 10.6819 22.9555 11.7229C23.56 12.5547 24.1324 13.4187 24.6299 14.3203C25.3521 15.6297 26.6146 15.8605 27.8824 16.0858C28.1018 16.1234 28.3853 15.9892 28.5993 15.8712C29.4926 15.3614 30.4128 14.8784 31.2473 14.2827C32.3012 13.5314 33.4406 12.9519 34.5908 12.3723C37.7095 10.7999 41.0316 10.6765 44.3911 10.9609C45.9906 11.0951 47.3441 11.9269 48.3123 13.2041C48.8954 13.9768 49.4999 14.7228 50.1258 15.458C52.041 17.7226 52.3833 18.6778 52.3994 22.4772H52.4047ZM36.3454 18.6134C34.8796 18.5329 33.6653 18.4041 32.4456 18.4149C31.3971 18.4256 31.0494 18.7368 30.8996 19.7565C30.707 21.0659 30.279 22.2465 29.4338 23.2715C28.9202 23.894 28.9149 24.5648 29.3215 25.2409C29.5194 25.5737 29.7441 25.8849 29.9474 26.2176C30.9691 27.8812 32.4402 29.1584 33.6813 30.6342C34.4677 31.5679 35.3183 32.4534 36.1956 33.2959C38.2178 35.2439 40.5876 35.2493 42.5509 34.0472C43.9204 33.2101 45.338 32.4427 46.7235 31.6377C47.2264 31.3479 47.6864 30.9937 48.0235 30.5108C50.3452 27.1997 51.2653 23.5291 50.7143 19.5257C50.5163 18.0875 49.8637 16.8318 48.5477 16.0322C48.0021 15.7048 47.4992 15.6243 46.9482 16.0429C46.1779 16.6278 45.338 17.084 44.4286 17.4382C41.7431 18.4793 38.9613 18.812 36.3508 18.6188L36.3454 18.6134ZM10.6462 27.4948C14.1288 27.3177 17.3064 26.3786 20.2433 24.6775C22.0461 23.6364 22.1156 23.411 21.2115 21.4415C20.6338 20.1911 20.5482 19.0159 21.0243 17.7119C21.4951 16.4293 21.2918 16.1663 19.9544 15.8444C19.8314 15.8122 19.703 15.7907 19.5746 15.7692C17.3064 15.4365 15.3324 14.3257 13.321 13.3436C11.7964 12.5977 10.5018 11.5459 9.92401 9.83934C9.88122 9.72128 9.81167 9.60858 9.74213 9.50126C9.37836 8.94315 8.8434 8.74459 8.24961 9.00218C7.65581 9.2544 7.1155 9.60322 6.64474 10.054C4.8473 11.7444 3.38152 13.6924 2.25277 15.8819C0.958177 18.3934 1.14006 20.9317 2.71283 23.2124C4.61726 25.9654 7.34553 27.4036 10.6462 27.5056V27.4948ZM24.0468 26.4806C24.004 26.1103 23.9719 25.6595 23.8917 25.2195C23.8114 24.7848 23.437 24.6077 23.0036 24.7633C22.8218 24.8277 22.6399 24.8975 22.474 24.9887C21.0725 25.7883 19.5746 26.3625 18.0607 26.9206C16.3756 27.5431 14.6958 28.23 13.8131 30.017C13.6526 30.3498 13.2889 30.5752 13.0267 30.8649C11.6412 32.3944 10.2557 33.9184 8.88085 35.4586C8.62407 35.743 8.36195 36.0274 8.31915 36.446C8.29775 36.6714 8.55988 37.0041 8.77386 36.9558C9.08413 36.886 9.39976 36.8163 9.68863 36.6929C10.4001 36.3923 11.0902 36.0328 11.8071 35.7591C12.8449 35.3566 13.3477 35.5874 13.781 36.6177C13.9522 37.0309 14.0325 37.4871 14.2036 37.9003C14.4497 38.4906 14.7119 39.0863 15.0328 39.639C15.3003 40.1059 15.6694 40.1864 16.199 39.9825C17.9858 39.2795 19.4836 38.2223 20.3931 36.4621C21.0136 35.26 21.6984 34.0848 22.2761 32.8612C23.223 30.8703 23.8863 28.7828 24.0415 26.4752L24.0468 26.4806ZM26.4006 32.5285H26.3899C26.3899 33.5589 26.3792 34.5946 26.3899 35.6249C26.4006 36.3172 26.529 36.3977 27.1656 36.1884C28.1018 35.8772 28.2515 35.8933 28.8026 36.5963C29.1556 37.0524 29.4498 37.5515 29.7601 38.0452C30.1025 38.5926 30.4181 39.156 30.9156 39.58C31.2366 39.8483 31.6967 39.7946 31.916 39.4405C32.0497 39.2258 32.1942 38.995 32.2584 38.7536C32.7291 37.0095 33.0287 35.2278 33.1838 33.4247C33.2427 32.7593 33.034 32.1475 32.6168 31.6216C32.2156 31.1225 31.809 30.6127 31.3703 30.1512C30.0811 28.7935 28.9042 27.3499 27.7808 25.8581C27.508 25.4985 27.2779 25.1068 27.0051 24.7526C26.8446 24.5433 26.6039 24.4306 26.3257 24.4789C25.9619 24.5379 25.7801 24.8009 25.7105 25.1336C25.534 25.9761 25.5447 26.8079 25.9673 27.5807C26.3204 28.23 26.4113 28.9116 26.406 29.636C26.3953 30.602 26.406 31.5679 26.406 32.5393L26.4006 32.5285ZM41.6575 11.9269C39.507 11.8625 37.426 12.1147 35.5002 13.1933C35.0562 13.4402 34.5426 13.5636 34.0665 13.7515C32.6703 14.2988 31.5629 15.3023 30.3807 16.1771C30.1185 16.3703 30.2737 16.8747 30.6053 16.9445C30.9798 17.025 31.365 17.0947 31.7448 17.1001C33.1624 17.1269 34.564 17.2611 35.9656 17.4865C39.0041 17.9748 41.834 17.186 44.5891 16.0053C45.247 15.7209 45.8141 15.297 46.2688 14.7335C46.7503 14.1432 46.7289 13.5744 46.2046 13.0055C45.7018 12.4635 45.0973 12.1201 44.359 12.0664C43.4603 12.002 42.5616 11.9752 41.6629 11.9269H41.6575ZM21.126 14.8301C21.3827 14.8301 21.6395 14.8408 21.8963 14.8301C22.3189 14.8086 22.6185 14.4169 22.4847 14.0251C22.3831 13.7246 22.2708 13.408 22.0889 13.1558C21.2597 12.0074 20.4519 10.8375 19.5425 9.75348C17.9751 7.8806 15.8781 6.97904 13.5082 6.66242C13.1337 6.61413 12.7379 6.66242 12.3634 6.74292C11.3095 6.96831 10.9137 7.53715 11.1812 8.5514C11.6038 10.1452 12.2457 11.6049 13.9308 12.2864C14.4016 12.4796 14.8188 12.8123 15.295 13.0055C17.178 13.789 18.9487 14.9696 21.1313 14.8301H21.126ZM24.9348 17.0411C24.8706 17.0411 24.8064 17.0411 24.7422 17.0411C22.672 17.0894 21.7786 18.4739 22.4152 20.4219C23.239 22.9495 26.7804 23.2607 28.3692 21.9406C28.947 21.4576 29.2733 20.7493 29.054 20.0463C28.717 18.9461 28.2194 17.8782 26.9944 17.4382C26.3257 17.1967 25.641 17.0679 24.9295 17.0411H24.9348Z" fill="#583B39"/>
<path d="M45.548 24.0776C45.4884 24.7179 45.2204 25.3211 44.9039 25.8832C43.6977 28.0239 41.7282 29.7179 39.4535 30.6337C37.4952 29.9301 35.9204 28.5973 35.28 27.7633C34.5764 26.8437 34.1594 25.6487 34.3753 24.5094C34.5913 23.3702 35.5369 22.3464 36.691 22.2422C37.8452 22.1379 39.0365 23.1543 38.936 24.3121C39.7923 23.1133 41.099 22.2384 42.5324 21.9071C43.3626 21.7135 44.3231 21.7321 44.9486 22.3092C45.4214 22.7485 45.6038 23.4335 45.5443 24.0776H45.548Z" fill="#EC8873"/>
</g>
<defs>
<clipPath id="clip0_292_53">
<rect width="52" height="48" fill="white"/>
</clipPath>
</defs>
</svg>
