<svg width="101" height="136" viewBox="0 0 101 136" fill="none" xmlns="http://www.w3.org/2000/svg">
<g clip-path="url(#clip0_269_22)">
<path d="M71.1638 42.3325C70.9526 42.3325 70.6476 42.3794 70.2604 42.4616C64.171 44.4327 44.4479 42.1565 31.4126 44.902C24.5136 46.2748 19.5388 49.1024 19.5388 54.7225C19.5388 57.7261 22.3665 59.8733 24.4667 59.8733C24.936 59.8733 25.241 59.6152 25.241 59.228C25.241 58.6296 24.0795 58.5005 23.1408 57.9021C21.8502 57.0456 21.0876 55.755 21.0876 54.5583C21.0876 50.9093 25.6752 48.9382 32.0696 47.8235C43.1807 45.8055 59.8181 46.2396 68.0077 44.4796C70.0257 44.0455 71.8678 43.4119 71.8678 42.7197C71.8678 42.4616 71.6566 42.3325 71.1873 42.3325H71.1638Z" fill="#455833"/>
<path d="M62.2469 50.0059C56.6738 50.0059 51.0537 51.6367 46.337 54.3822C43.3334 56.0953 40.7639 58.2424 38.8279 60.7767C38.6989 60.9058 38.6168 61.0818 38.4877 61.2108C37.42 62.7126 36.3875 64.2145 35.4489 65.5872C29.1483 74.7155 21.6392 86.3428 21.6392 88.5252C21.6392 88.9593 21.9442 89.2995 22.6717 89.2995C24.5137 89.2995 26.1446 87.6687 27.0011 86.2138C29.1835 82.3536 31.8938 77.3319 35.1438 71.8057C35.5779 77.0855 39.9074 81.1099 46.8064 82.6587C44.8821 85.1461 42.8641 87.2932 40.846 88.7481C38.3586 87.9385 36.0824 87.3284 34.0761 87.3284C32.0698 87.3284 30.1338 88.443 30.1338 90.1208C30.1338 92.0098 32.3631 92.8663 34.5454 92.8663C37.2088 92.8663 39.7314 92.0098 42.2657 90.4611C46.1258 91.7048 50.6665 92.9954 55.5591 92.9954C73.7804 92.9954 84.3284 79.3148 84.3284 67.5232C84.3284 56.635 74.59 50.0293 62.2469 50.0293V50.0059ZM34.2521 91.1768C32.7033 91.1768 31.5535 90.6136 31.5535 89.851C31.5535 88.9123 32.5391 88.4782 34.346 88.4782C35.6718 88.4782 37.4787 88.9475 39.5319 89.6398C37.8541 90.6254 36.1059 91.1885 34.2521 91.1885V91.1768ZM55.125 91.7752C50.8425 91.7752 46.9824 90.7075 43.5446 89.628C45.856 87.915 48.1791 85.721 50.4084 83.1515C51.3118 83.1984 52.1683 83.2336 53.107 83.2336C63.2208 83.2336 69.3102 77.1442 69.3102 75.7714C69.3102 75.5133 69.1342 75.3842 68.876 75.3842C68.6649 75.3842 68.4067 75.4664 68.1486 75.7245C63.737 80.5702 57.2956 81.9899 53.1891 81.9899C52.5907 81.9899 52.0275 81.9899 51.4291 81.943C53.7053 79.1974 55.9698 76.1938 58.2929 72.9438C62.1531 67.4528 67.2569 60.765 67.2569 59.7325C67.2569 59.2984 66.9166 59.005 66.5295 59.005C63.913 59.005 59.1494 65.3526 54.4797 71.9582C52.1214 75.3021 49.9743 78.5639 47.7919 81.3915C42.0076 79.8897 38.3586 76.0296 38.3586 71.0548C38.3586 68.0159 39.2151 65.1766 40.717 62.654C40.9751 62.2199 41.2801 61.7505 41.5735 61.3282C45.985 55.1097 54.2685 51.1674 62.1531 51.1674C72.7831 51.1674 80.3391 57.3859 80.3391 67.4645C80.3391 79.0801 72.1495 91.7752 55.125 91.7752Z" fill="#455833"/>
<path d="M49.8568 127.901C25.288 127.901 5.30676 100.868 5.30676 67.6522C5.30676 34.4362 25.288 7.40348 49.8568 7.40348C74.4256 7.40348 94.4068 34.4362 94.4068 67.6522C94.4068 100.868 74.4256 127.901 49.8568 127.901ZM49.8568 8.68237C25.992 8.68237 6.59739 35.1402 6.59739 67.6522C6.59739 100.164 26.0037 126.622 49.8568 126.622C73.7099 126.622 93.1162 100.164 93.1162 67.6522C93.1162 35.1402 73.7099 8.68237 49.8568 8.68237Z" fill="#455833"/>
<path d="M49.377 15.3318L47.278 17.4308C47.1955 17.5133 47.1955 17.647 47.278 17.7295L49.377 19.8285C49.4595 19.911 49.5932 19.911 49.6757 19.8285L51.7747 17.7295C51.8572 17.647 51.8572 17.5133 51.7747 17.4308L49.6757 15.3318C49.5932 15.2493 49.4595 15.2493 49.377 15.3318Z" fill="#455833"/>
<path d="M49.3824 115.466L47.2834 117.565C47.2009 117.648 47.2009 117.781 47.2834 117.864L49.3824 119.963C49.4648 120.045 49.5986 120.045 49.681 119.963L51.78 117.864C51.8625 117.781 51.8625 117.648 51.78 117.565L49.681 115.466C49.5986 115.384 49.4648 115.384 49.3824 115.466Z" fill="#455833"/>
<path d="M49.8569 135.304C22.2845 135.304 -0.148926 104.951 -0.148926 67.6522C-0.148926 30.3532 22.2845 -7.62939e-06 49.8569 -7.62939e-06C77.4294 -7.62939e-06 99.8511 30.3532 99.8511 67.6522C99.8511 104.951 77.4177 135.304 49.8569 135.304ZM49.8569 1.29062C22.9885 1.29062 1.1417 31.0571 1.1417 67.6522C1.1417 104.247 22.9885 134.014 49.8569 134.014C76.7254 134.014 98.5604 104.247 98.5604 67.6522C98.5604 31.0571 76.7137 1.29062 49.8569 1.29062Z" fill="#455833"/>
</g>
<defs>
<clipPath id="clip0_269_22">
<rect width="100" height="135.833" fill="white" transform="translate(0.171753)"/>
</clipPath>
</defs>
</svg>
