<svg width="367" height="154" viewBox="0 0 367 154" fill="none" xmlns="http://www.w3.org/2000/svg">
<g clip-path="url(#clip0_269_33)">
<path d="M108.354 0C109.125 0 109.485 0.256967 109.485 0.69381C109.485 1.82446 106.35 2.95511 102.959 3.64892C89.1363 6.60404 60.926 5.91023 42.1449 9.30219C31.3541 11.2294 23.6206 14.5186 23.6206 20.7115C23.6206 22.7158 24.9309 24.9001 27.0891 26.3648C28.6563 27.4183 30.6604 27.5725 30.6604 28.6261C30.6604 29.2428 30.1465 29.6796 29.35 29.6796C25.7788 29.6796 21 26.1078 21 20.9685C21 11.4864 29.4271 6.70683 41.0915 4.34273C63.1099 -0.256966 96.5358 3.57183 106.787 0.256967C107.481 0.07709 107.995 0 108.354 0ZM73.13 9.30219C73.5667 9.30219 73.9264 9.55915 73.9264 9.996C73.9264 10.3558 73.6695 10.9468 73.13 11.5635C65.4736 21.0456 58.588 31.2214 52.6788 40.9862C44.7655 53.8602 38.4195 65.7834 33.615 74.2376C32.1248 76.7559 29.4271 79.454 26.3183 79.454C25.1108 79.454 24.5712 78.9401 24.5712 78.1435C24.5712 74.4946 37.2633 54.811 47.9 39.3416C56.5069 26.7245 69.9184 9.32788 73.13 9.32788V9.30219Z" fill="#583B39"/>
<path d="M61.2858 59.9503C61.2858 53.4233 67.5547 44.6351 74.4146 37.1574C75.2111 36.2837 76.1617 35.9496 77.1123 35.9496C78.4997 35.9496 79.7329 36.8233 79.7329 37.9539C79.7329 38.3908 79.476 38.9047 79.0392 39.4444C73.9008 45.3546 66.9381 53.3719 66.9381 61.1066C66.9381 62.9311 67.5547 63.9846 69.2761 63.9846C73.6181 63.9846 79.1163 59.5391 85.0256 50.7509C85.2825 50.314 85.6422 50.1342 85.8991 50.1342C86.413 50.1342 86.7727 50.571 86.7727 51.0849C86.7727 52.3955 77.2922 66.6571 67.8887 66.6571C63.8036 66.6571 61.2858 64.3958 61.2858 59.9503ZM92.5278 14.0047C94.095 14.0047 94.7116 14.8784 94.7116 15.8291C94.7116 18.3474 90.5238 22.87 87.415 22.87C85.8477 22.87 85.3339 21.9192 85.3339 20.9428C85.3339 18.5016 89.1621 13.979 92.5535 13.979L92.5278 14.0047Z" fill="#583B39"/>
<path d="M119.248 50.7252C119.505 50.2883 119.864 50.1085 120.121 50.1085C120.635 50.1085 120.995 50.5453 120.995 51.0592C120.995 52.01 118.117 57.3292 112.722 61.7747C108.714 65.0896 103.139 67.8648 96.3559 67.8648C88.4426 67.8648 83.818 63.3422 83.818 56.4555C83.818 46.3567 95.8164 35.4871 106.71 35.4871C111.848 35.4871 114.366 37.9282 114.366 40.8834C114.366 44.7122 111.489 48.618 109.151 48.618C107.506 48.618 106.633 47.6673 106.633 46.2797C106.633 44.6351 109.331 42.4509 109.331 39.3929C109.331 38.0053 108.457 37.3886 106.556 37.3886C99.2591 37.3886 90.1126 46.9735 90.1126 56.6097C90.1126 62.006 92.8103 65.398 97.8461 65.398C106.299 65.398 113.339 60.0788 119.248 50.6995V50.7252Z" fill="#583B39"/>
<path d="M142.988 66.6571C138.903 66.6571 135.845 64.3187 135.845 59.6162C135.845 53.2691 141.677 45.0719 145.326 40.0354C141.318 42.7335 137.412 46.7422 133.764 50.828C126.878 58.6654 121.843 66.6571 117.758 66.6571C115.856 66.6571 114.623 65.7063 114.623 62.7512C114.623 57.7147 127.161 36.0267 132.993 27.6753C140.907 16.266 146.996 9.14801 149.693 9.14801C150.31 9.14801 150.644 9.58485 150.644 10.3558C150.644 12.874 147.869 18.5273 143.861 24.4632C139.519 30.9902 136.025 34.9988 133.147 38.031C125.568 48.8236 121.843 56.9181 121.843 59.4363C121.843 59.8732 122.023 60.1301 122.28 60.1301C123.333 60.1301 127.315 54.7339 132.377 49.0035C137.592 42.9905 144.478 36.1295 149.334 36.1295C151.338 36.1295 152.725 37.0032 152.725 38.2109C152.725 38.5707 152.545 38.9818 152.288 39.3416C149.154 43.5301 141.497 53.0122 141.497 60.7469C141.497 62.7512 142.191 64.1388 144.272 64.1388C149.231 64.1388 154.19 59.5134 160.099 50.7252C160.356 50.2883 160.715 50.1085 160.972 50.1085C161.486 50.1085 161.846 50.5453 161.846 51.0592C161.846 52.8066 152.365 66.6314 142.962 66.6314L142.988 66.6571Z" fill="#583B39"/>
<path d="M180.062 58.5627C175.874 63.5992 171.095 67.5308 166.676 67.5308C161.358 67.5308 158.403 63.7791 158.403 58.2286C158.403 47.693 170.067 35.5128 181.295 35.5128C186.254 35.5128 188.515 37.2601 190.519 39.4186C192.6 37.0803 194.604 35.5128 196.094 35.5128C197.045 35.5128 197.481 36.2066 197.481 37.3372C197.481 40.9091 191.469 48.0527 186.511 53.3462C185.123 56.0444 184.764 58.2286 184.764 60.3871C184.764 63.1623 186.074 64.293 187.718 64.293C191.623 64.293 197.456 59.4106 203.288 50.7252C203.545 50.2883 203.904 50.1085 204.161 50.1085C204.675 50.1085 205.035 50.5453 205.035 51.0592C205.035 52.8066 195.118 66.6314 186.151 66.6314C182.939 66.6314 179.985 64.4472 179.985 59.7447C179.985 59.3849 179.985 58.9738 180.062 58.537V58.5627ZM168.141 65.0896C172.046 65.0896 177.004 59.7704 181.449 53.9629C183.016 50.2112 185.457 45.9456 188.052 42.4766C187.179 39.7013 185.175 37.1573 181.346 37.1573C173.073 37.1573 164.466 49.6973 164.466 58.6397C164.466 63.1623 165.52 65.0896 168.115 65.0896H168.141Z" fill="#583B39"/>
<path d="M263.562 57.3035C262.791 57.3035 261.224 58.9481 258.886 62.1345L258.501 62.6484H259.143C260.196 62.6484 261.301 62.6484 262.483 62.7255H262.689L262.791 62.5456C263.768 60.6441 264.359 59.0252 264.359 58.1772C264.359 57.6376 264.05 57.3292 263.588 57.3292L263.562 57.3035ZM262.509 62.3915C261.327 62.3401 260.196 62.3401 259.143 62.3401C261.25 59.4364 262.894 57.6376 263.562 57.6376C263.896 57.6376 264.025 57.8432 264.025 58.1772C264.025 58.9481 263.485 60.4642 262.509 62.3915ZM257.627 63.8819C254.75 67.9676 251.949 72.6187 249.688 76.9872L249.046 78.2206L250.125 77.3983C256.497 72.6701 260.402 66.6057 261.789 64.2159L262.046 63.7277H257.704L257.627 63.8819ZM261.507 64.0617C259.143 68.1475 255.084 73.3125 249.945 77.1413C252.514 72.1819 255.418 67.5565 257.884 64.0617H261.507Z" fill="#583B39"/>
<path d="M263.562 57.3035C262.791 57.3035 261.224 58.9481 258.886 62.1345L258.501 62.6484H259.143C260.196 62.6484 261.301 62.6484 262.483 62.7255H262.689L262.791 62.5456C263.768 60.6441 264.359 59.0252 264.359 58.1772C264.359 57.6376 264.05 57.3292 263.588 57.3292L263.562 57.3035ZM259.76 62.006C262.123 58.8196 263.28 57.9459 263.562 57.9459C263.665 57.9459 263.716 57.9459 263.716 58.1772C263.716 58.8967 263.177 60.3357 262.329 62.0574C261.43 62.0574 260.582 62.006 259.76 62.006ZM257.704 63.7277L257.627 63.8819C254.75 67.9676 251.949 72.6187 249.688 76.9872L249.046 78.2206L250.125 77.3983C256.497 72.6701 260.402 66.6057 261.789 64.2159L262.046 63.7277H257.704ZM250.921 75.985C253.028 72.0791 255.52 67.9933 258.038 64.3444H260.967C259.503 66.7856 256.111 71.7707 250.921 75.985ZM263.562 57.3035C262.791 57.3035 261.224 58.9481 258.886 62.1345L258.501 62.6484H259.143C260.196 62.6484 261.301 62.6484 262.483 62.7255H262.689L262.791 62.5456C263.768 60.6441 264.359 59.0252 264.359 58.1772C264.359 57.6376 264.05 57.3292 263.588 57.3292L263.562 57.3035ZM259.76 62.006C262.123 58.8196 263.28 57.9459 263.562 57.9459C263.665 57.9459 263.716 57.9459 263.716 58.1772C263.716 58.8967 263.177 60.3357 262.329 62.0574C261.43 62.0574 260.582 62.006 259.76 62.006ZM257.627 63.8819C254.75 67.9676 251.949 72.6187 249.688 76.9872L249.046 78.2206L250.125 77.3983C256.497 72.6701 260.402 66.6057 261.789 64.2159L262.046 63.7277H257.704L257.627 63.8819ZM260.967 64.3444C259.503 66.7856 256.111 71.7707 250.921 75.985C253.028 72.0791 255.52 67.9933 258.038 64.3444H260.967ZM263.562 57.3035C262.791 57.3035 261.224 58.9481 258.886 62.1345L258.501 62.6484H259.143C260.196 62.6484 261.301 62.6484 262.483 62.7255H262.689L262.791 62.5456C263.768 60.6441 264.359 59.0252 264.359 58.1772C264.359 57.6376 264.05 57.3292 263.588 57.3292L263.562 57.3035ZM259.76 62.006C262.123 58.8196 263.28 57.9459 263.562 57.9459C263.665 57.9459 263.716 57.9459 263.716 58.1772C263.716 58.8967 263.177 60.3357 262.329 62.0574C261.43 62.0574 260.582 62.006 259.76 62.006ZM257.627 63.8819C254.75 67.9676 251.949 72.6187 249.688 76.9872L249.046 78.2206L250.125 77.3983C256.497 72.6701 260.402 66.6057 261.789 64.2159L262.046 63.7277H257.704L257.627 63.8819ZM260.967 64.3444C259.503 66.7856 256.111 71.7707 250.921 75.985C253.028 72.0791 255.52 67.9933 258.038 64.3444H260.967Z" fill="#583B39"/>
<path d="M270.448 62.3401C269.754 62.3401 269.086 62.2887 268.392 62.263C267.288 62.2116 266.157 62.1602 265.027 62.1345C265.926 60.2073 266.44 58.4085 266.44 56.9952C266.44 55.4277 265.463 54.4255 263.948 54.4255C260.479 54.4255 256.728 58.4856 254.133 61.9803C250.305 61.9803 247.273 62.0317 245.346 62.1088C243.933 62.1859 243.214 62.5971 243.214 63.3423C243.214 64.0875 244.01 64.4472 245.578 64.4472C247.504 64.3701 249.791 64.3701 252.437 64.3701C249.329 69.0469 246.297 75.1113 244.653 80.0194C241.492 81.5355 238.281 82.3064 235.121 82.3064C229.083 82.3064 225.332 78.2463 225.332 71.6937C225.332 63.2909 232.243 59.1794 235.378 57.7147C236.919 58.5627 238.897 58.9995 241.287 58.9995C243.496 58.9995 245.834 58.1258 245.834 56.6611C245.834 55.0936 244.19 54.0144 241.878 54.0144C240.773 54.0144 239.463 54.1942 237.921 54.5283C237.459 53.3977 237.227 52.267 237.227 50.8537C237.227 44.0955 244.781 36.515 254.827 36.515C260.839 36.515 264.564 38.802 264.564 42.528C264.564 46.254 261.25 48.2583 258.501 49.1577C257.602 49.4661 256.754 49.7744 256.754 50.5196C256.754 50.8794 257.062 51.2391 257.653 51.2391C260.248 51.2391 266.825 48.6952 266.825 42.6051C266.825 37.5942 262.072 34.5106 254.441 34.5106C243.753 34.5106 231.858 41.2174 231.858 50.8794C231.858 52.9608 232.346 54.6054 233.322 55.9416C226.617 58.5884 219.577 64.1645 219.577 72.1562C219.577 79.5825 225.846 84.7476 234.761 84.7476C237.69 84.7476 240.799 84.0537 243.985 82.7175C243.83 83.4884 243.753 84.0794 243.753 84.5677C243.753 85.3129 244.113 85.8011 244.601 85.8011C245.706 85.8011 246.451 85.0302 247.582 82.512C247.761 82.2036 247.916 81.8695 248.07 81.5612C248.275 81.1243 248.455 80.7132 248.686 80.302C255.88 75.7794 261.224 69.1754 263.871 64.4215C265.952 64.4729 268.058 64.4729 270.319 64.4729C270.859 64.4729 272.477 64.4729 272.477 63.445C272.477 62.5714 271.45 62.4429 270.448 62.3915V62.3401ZM249.688 76.9872C251.949 72.6187 254.75 67.9677 257.627 63.8819L257.704 63.7277H262.046L261.789 64.2159C260.402 66.6057 256.497 72.6701 250.125 77.3983L249.046 78.2206L249.688 76.9872ZM262.766 62.5457L262.663 62.7255H262.457C261.301 62.6484 260.197 62.6484 259.117 62.6484H258.475L258.861 62.1345C261.173 58.9481 262.74 57.3035 263.537 57.3035C264.025 57.3035 264.307 57.6376 264.307 58.1515C264.307 58.9995 263.716 60.6184 262.74 62.52L262.766 62.5457Z" fill="#583B39"/>
<path d="M156.322 154C148.049 154 140.316 151.816 133.79 149.734C129.525 152.355 125.26 153.82 120.738 153.82C117.09 153.82 113.262 152.33 113.262 149.118C113.262 146.342 116.473 144.415 119.967 144.415C123.461 144.415 127.187 145.469 131.452 146.856C134.843 144.338 138.235 140.766 141.549 136.501C129.191 133.802 121.714 126.325 121.714 116.74C121.714 96.9021 145.12 81.3299 167.652 81.3299C188.54 81.3299 204.984 92.4565 204.984 110.907C204.984 130.847 187.153 153.974 156.348 153.974L156.322 154ZM120.224 150.942C123.359 150.942 126.313 149.991 129.191 148.321C125.722 147.19 122.665 146.394 120.404 146.394C117.372 146.394 115.702 147.088 115.702 148.655C115.702 149.966 117.604 150.916 120.224 150.916V150.942ZM147.638 137.374C143.81 141.717 139.905 145.469 135.974 148.347C141.806 150.171 148.332 151.996 155.551 151.996C184.353 151.996 198.278 130.488 198.278 110.83C198.278 93.7671 185.483 83.2314 167.473 83.2314C148.075 83.2314 127.187 97.3389 127.187 116.92C127.187 125.348 133.353 131.901 143.193 134.419C146.842 129.64 150.49 124.141 154.498 118.487C162.411 107.258 170.427 96.568 174.872 96.568C175.566 96.568 176.08 97.0819 176.08 97.7757C176.08 99.5231 167.473 110.83 160.947 120.132C157.042 125.605 153.213 130.745 149.385 135.37C150.336 135.447 151.286 135.447 152.34 135.447C159.302 135.447 170.17 133.006 177.647 124.834C178.084 124.397 178.52 124.218 178.854 124.218C179.291 124.218 179.548 124.475 179.548 124.911C179.548 127.25 169.271 137.528 152.134 137.528C150.567 137.528 149.103 137.451 147.612 137.349L147.638 137.374Z" fill="#583B39"/>
<path d="M228.03 139.379C223.842 144.415 219.063 148.347 214.644 148.347C209.326 148.347 206.371 144.595 206.371 139.045C206.371 128.509 218.035 116.329 229.263 116.329C234.222 116.329 236.483 118.076 238.487 120.235C240.568 117.896 242.572 116.329 244.062 116.329C245.012 116.329 245.449 117.023 245.449 118.153C245.449 121.725 239.437 128.869 234.478 134.162C233.091 136.86 232.731 139.045 232.731 141.203C232.731 143.978 234.042 145.109 235.686 145.109C239.591 145.109 245.423 140.227 251.256 131.541C251.513 131.104 251.872 130.924 252.129 130.924C252.643 130.924 253.003 131.361 253.003 131.875C253.003 133.623 243.085 147.447 234.119 147.447C230.907 147.447 227.953 145.263 227.953 140.561C227.953 140.201 227.953 139.79 228.03 139.353V139.379ZM216.108 145.906C220.014 145.906 224.972 140.586 229.417 134.779C230.984 131.027 233.425 126.762 236.02 123.293C235.147 120.517 233.142 117.973 229.314 117.973C221.041 117.973 212.434 130.513 212.434 139.456C212.434 143.978 213.488 145.906 216.083 145.906H216.108Z" fill="#583B39"/>
<path d="M281.213 129.794C277.642 139.379 267.108 148.321 258.141 148.321C253.363 148.321 249.175 145.623 249.175 139.456C249.175 131.978 259.169 116.997 263.973 116.997C265.361 116.997 266.491 117.871 266.491 119.078C266.491 119.772 266.132 120.569 265.361 121.417C259.965 127.25 255.367 134.034 255.367 140.124C255.367 144.132 256.754 145.957 259.965 145.957C262.74 145.957 265.618 144.646 269.703 140.92C274.045 137.092 276.743 132.209 277.796 127.867C276.306 126.376 275.535 124.218 275.535 121.597C275.535 119.515 276.409 117.151 278.49 117.151C280.751 117.151 282.498 119.412 282.498 123.164C282.498 124.732 282.241 126.299 281.804 127.867C282.755 128.303 283.885 128.38 285.272 128.38C290.231 128.38 294.316 125.759 299.969 121.083C300.482 120.646 301.022 120.466 301.356 120.466C301.793 120.466 301.973 120.723 301.973 121.16C301.973 122.907 292.826 130.308 285.093 130.308C283.602 130.308 282.318 130.128 281.187 129.794H281.213Z" fill="#583B39"/>
<path d="M289.563 140.766C289.563 134.239 295.832 125.451 302.692 117.973C303.488 117.1 304.439 116.766 305.39 116.766C306.777 116.766 308.01 117.639 308.01 118.77C308.01 119.207 307.753 119.721 307.317 120.26C302.178 126.171 295.215 134.188 295.215 141.923C295.215 143.747 295.832 144.801 297.553 144.801C301.895 144.801 307.394 140.355 313.303 131.567C313.56 131.13 313.92 130.95 314.176 130.95C314.69 130.95 315.05 131.387 315.05 131.901C315.05 133.211 305.569 147.473 296.166 147.473C292.081 147.473 289.563 145.212 289.563 140.766ZM320.805 94.8206C322.372 94.8206 322.989 95.6943 322.989 96.6451C322.989 99.1634 318.801 103.686 315.692 103.686C314.125 103.686 313.611 102.735 313.611 101.759C313.611 99.3175 317.439 94.7949 320.831 94.7949L320.805 94.8206Z" fill="#583B39"/>
<path d="M333.24 139.379C329.052 144.338 324.274 148.347 319.752 148.347C314.433 148.347 311.479 144.595 311.479 139.045C311.479 128.509 323.143 116.329 334.371 116.329C338.276 116.329 340.537 117.459 342.387 118.95C344.828 115.044 347.345 111.369 349.349 108.517C357.263 97.1077 363.352 89.9897 366.05 89.9897C366.666 89.9897 367 90.4265 367 91.1974C367 93.7157 364.225 99.369 360.217 105.305C354.899 113.219 349.94 119.31 345.239 124.012C341.051 130.462 337.942 135.935 337.942 141.254C337.942 143.953 338.893 145.006 340.82 145.006C345.007 144.929 350.66 140.381 356.569 131.593C356.826 131.156 357.186 130.976 357.443 130.976C357.956 130.976 358.316 131.413 358.316 131.927C358.316 133.237 348.836 147.499 339.432 147.499C335.784 147.499 333.163 145.315 333.163 140.612C333.163 140.175 333.163 139.841 333.24 139.404V139.379ZM321.242 145.906C325.07 145.906 329.772 140.946 334.114 135.37C335.424 131.181 337.865 126.505 340.563 121.879C339.509 119.695 337.608 117.973 334.473 117.973C326.201 117.973 317.594 130.513 317.594 139.456C317.594 143.978 318.647 145.906 321.242 145.906Z" fill="#583B39"/>
</g>
<defs>
<clipPath id="clip0_269_33">
<rect width="367" height="154" fill="white"/>
</clipPath>
</defs>
</svg>
