<svg width="664" height="410" viewBox="0 0 664 410" fill="none" xmlns="http://www.w3.org/2000/svg">
<g clip-path="url(#clip0_337_103)">
<path d="M525.699 296.574L554.483 327.014C432.306 321.825 308.488 320.473 186.311 322.994C160.519 323.506 133.121 323.652 105.723 321.386L140.089 295.734C145.452 299.242 154.025 300.338 162.233 300.338C164.969 300.338 167.669 300.192 170.223 300.046C195.504 298.292 290.429 297.488 320.235 298.146C387.324 299.717 455.326 299.242 522.379 296.794C523.437 296.757 524.568 296.684 525.699 296.574Z" fill="#F3BF8B"/>
<path d="M565.427 326.064C565.427 325.662 565.318 325.296 565.026 325.04L548.682 308.45C546.274 306.002 543.976 303.554 541.678 301.142C539.124 298.438 536.497 295.661 533.652 292.774C534.928 291.385 536.059 289.595 536.971 287.402C540.036 280.021 539.963 271.799 539.89 264.527C539.562 226.268 539.416 190.53 539.306 155.998C539.197 121.465 539.087 85.7275 538.723 47.2489C538.577 26.0181 529.274 13.8496 513.185 13.8496H512.967C503.08 13.9227 492.792 14.1419 482.176 14.4343C482.249 11.4744 481.957 2.8505 481.045 1.93695C479.841 0.694524 476.12 0.182937 466.854 0.0733117H465.577C461.309 -0.0728558 456.128 0.657982 454.231 1.68115C452.261 2.66779 452.845 15.0189 452.882 15.1286C452.882 15.2382 452.954 15.3113 452.991 15.4209C451.933 15.4209 450.912 15.494 449.89 15.5305C421.982 16.4806 393.052 17.3942 364.013 17.4673C329.282 17.4307 294.479 17.0653 263.798 16.7364C248.986 16.5902 235.087 16.4441 222.318 16.3345C222.428 14.0689 222.209 4.34871 221.151 3.36208C220.677 2.88704 219.144 1.53499 205.683 1.49845C198.897 1.49845 194.921 2.19274 193.899 3.47171C193.06 4.53142 192.732 13.1918 192.951 16.1883C163.328 16.1883 143.774 16.7364 139.25 18.6C133.668 20.9022 130.421 29.5992 129.546 44.3621C129.546 44.3986 129.546 44.4352 129.546 44.4717C129.582 45.7872 134.033 177.301 129.546 254.953C129.145 261.75 130.969 279.728 134.945 289.156C121.046 299.205 106.708 309.62 93.1738 320.582C93.0279 320.692 92.882 320.838 92.809 321.021C92.736 321.167 92.6631 321.35 92.6631 321.496C89.8175 350.583 89.5986 378.209 91.9699 403.605C92.0429 404.263 92.5171 404.775 93.1738 404.848C138.703 410.329 184.998 409.744 229.761 409.196C253.619 408.904 278.317 408.575 302.687 409.196C328.37 409.854 354.381 410 380.137 410C392.687 410 405.164 409.964 417.494 409.927C429.752 409.891 441.901 409.854 453.94 409.854C498.119 410.183 531.134 409.16 564.296 406.346C565.026 406.273 565.609 405.652 565.536 404.884C563.968 379.634 563.931 353.105 565.427 326.027V326.064ZM539.708 303.006C542.006 305.454 544.304 307.902 546.748 310.387L562.654 326.539C562.654 326.794 562.654 327.05 562.654 327.342C561.268 327.269 559.845 327.233 558.423 327.16L528.836 295.88C529.383 295.697 529.93 295.515 530.441 295.259C530.843 295.076 531.207 294.784 531.572 294.528C534.491 297.451 537.117 300.265 539.708 303.006ZM554.519 327.014C432.306 321.825 308.488 320.473 186.311 322.994C160.519 323.506 133.121 323.652 105.723 321.423L140.126 295.734C145.488 299.278 154.025 300.338 162.27 300.338C165.006 300.338 167.706 300.228 170.223 300.046C195.541 298.292 290.466 297.488 320.235 298.182C387.324 299.717 455.362 299.242 522.379 296.83C523.437 296.793 524.568 296.72 525.699 296.611L554.483 327.05L554.519 327.014ZM455.982 3.87367C457.661 3.289 461.674 2.63124 465.541 2.74087H466.854C475.062 2.88704 478.017 3.32554 478.893 3.69096C479.148 5.33534 479.659 11.2551 479.477 14.5074C471.669 14.7266 463.68 15.0189 455.545 15.2747C455.581 15.092 455.618 14.9459 455.581 14.7632C455.216 11.8033 455.654 5.66422 455.946 3.87367H455.982ZM196.125 5.07955C197.073 4.67759 200.393 4.166 205.646 4.166C213.234 4.09292 217.758 4.64105 218.999 5.15263C219.29 6.90665 219.801 13.1918 219.546 16.2614C211.046 16.1883 203.056 16.1517 195.65 16.1517C195.322 13.1918 195.833 6.79702 196.125 5.11609V5.07955ZM132.282 255.063C136.733 177.923 132.391 47.9066 132.282 44.3986C133.303 26.5662 137.754 22.1446 140.271 21.0849C147.239 18.1981 198.642 18.7462 263.725 19.4405C294.442 19.7694 329.246 20.1348 363.976 20.1714C393.161 20.1714 422.018 19.2213 449.927 18.2346C472.29 17.4673 493.412 16.7364 513.003 16.5902H513.222C532.849 16.5902 535.913 35.7747 536.023 47.4681C536.351 85.7275 536.497 121.465 536.607 155.998C536.716 190.53 536.826 226.268 537.19 264.527C537.263 271.543 537.336 279.473 534.491 286.342C533.141 289.558 531.39 291.751 529.237 292.847C527.158 293.907 524.568 293.98 522.269 294.089C455.289 296.538 387.324 296.976 320.271 295.441C290.429 294.747 195.359 295.551 170.004 297.305C154.609 298.365 143.81 296.428 139.542 291.787C134.507 286.306 131.808 262.956 132.246 255.099L132.282 255.063ZM136.149 291.641C136.587 292.408 137.061 293.103 137.535 293.651C137.645 293.76 137.791 293.87 137.9 293.98L101.638 321.057C100.251 320.948 98.8649 320.802 97.5151 320.655C110.101 310.606 123.308 300.959 136.149 291.678V291.641ZM453.94 407.113C441.901 407.113 429.716 407.113 417.458 407.187C379.809 407.296 340.847 407.406 302.724 406.456C278.317 405.835 253.619 406.163 229.688 406.456C185.363 407.004 139.542 407.589 94.5236 402.253C92.2982 377.734 92.5171 351.131 95.1803 323.14C97.3692 323.359 99.5581 323.579 101.747 323.761C101.82 323.761 101.893 323.798 101.929 323.798C101.929 323.798 101.966 323.798 102.002 323.798C130.64 326.356 159.351 326.283 186.275 325.698C311.114 323.14 437.669 324.602 562.436 330.047C561.195 355.297 561.232 380.072 562.654 403.715C530.003 406.419 497.389 407.406 453.867 407.077L453.94 407.113Z" fill="#F3BF8B"/>
<path d="M146.072 266.281C146.072 273.882 147.896 279.473 151.471 282.944C155.119 286.489 159.315 286.379 159.424 286.379C202.035 286.818 244.864 287 287.73 287C359.854 287 432.16 286.416 503.846 285.21C508.187 285.137 513.623 285.064 518.001 282.323C525.881 277.463 526.975 266.975 527.012 257.401L527.596 64.9353C527.596 55.946 527.669 39.2464 518.512 33.0342C508.662 26.3471 465.03 28.3934 441.609 29.4897H441.171C431.467 29.9647 421.836 29.8916 412.533 29.8185C402.282 29.7455 391.702 29.6358 380.976 30.257C357.482 31.6456 334.572 31.5726 310.312 31.4995C305.058 31.4995 299.732 31.4995 294.333 31.4995C280.506 31.4995 266.461 31.061 252.89 30.6225C238.808 30.184 224.361 29.7089 209.915 29.7455H207.324C191.929 29.7455 168.691 29.8185 149.903 33.8016C138.447 36.2134 143.555 140.833 143.591 141.893C146.036 190.968 146.108 265.55 146.108 266.318L146.072 266.281ZM150.413 36.4692C168.946 32.5592 192.002 32.5226 207.288 32.4861H209.878C224.142 32.413 238.699 32.9246 252.744 33.3631C266.352 33.8016 280.397 34.2401 294.26 34.2401C299.659 34.2401 304.985 34.2401 310.239 34.2401C334.535 34.3132 357.519 34.3863 381.086 32.9977C391.738 32.3765 402.282 32.4496 412.46 32.5592C421.799 32.6323 431.467 32.7054 441.244 32.2669H441.682C463.169 31.2437 507.859 29.1243 516.943 35.2998C524.896 40.708 524.86 56.4576 524.823 64.9353L524.239 257.401C524.239 266.245 523.291 275.855 516.542 280.021C512.784 282.323 508.005 282.396 503.773 282.469C389.513 284.369 273.648 284.771 159.351 283.639C159.242 283.639 156.104 283.675 153.295 280.934C150.304 278.011 148.772 273.078 148.772 266.281C148.772 265.514 148.699 190.859 146.254 141.746C143.883 93.9861 145.16 37.5654 150.377 36.4692H150.413Z" fill="#F3BF8B"/>
<path d="M412.205 348.939C407.389 344.919 400.531 344.846 395.824 345.138C389.294 345.54 382.837 346.71 376.599 348.646C373.826 345.942 370.069 344.188 365.873 344.773C363.356 345.138 361.167 346.271 359.015 347.331L358.248 347.733C340.664 356.613 323.919 358.257 305.533 352.922C303.855 352.447 301.52 351.277 298.82 349.925C292.582 346.819 284.811 342.982 278.755 344.408C277.661 344.663 276.603 345.138 275.618 345.723C265.877 341.959 243.697 340.461 236.473 349.231C233.226 353.214 232.314 358.768 234.211 363.446C235.962 367.758 239.793 371.375 244.718 373.349C248.622 374.92 253.583 375.687 258.289 375.687C262.995 375.687 267.3 374.883 270.255 373.385C272.517 376.345 275.326 378.684 277.588 380.328C284.3 385.298 302.651 394.068 326.801 394.068C337.819 394.068 350.04 392.241 362.955 387.381C368.427 385.334 373.644 380.876 377.146 375.285C379.991 375.541 382.874 375.687 385.756 375.687C390.608 375.687 395.496 375.322 400.312 374.591C404.507 373.933 409.286 372.874 412.788 369.731C415.707 367.1 417.422 363.154 417.312 359.207C417.239 355.26 415.379 351.424 412.351 348.902L412.205 348.939ZM245.63 370.827C241.398 369.146 238.151 366.077 236.656 362.423C235.123 358.695 235.853 354.201 238.48 350.985C244.317 343.859 262.922 344.59 272.809 347.66C270.474 349.706 268.504 352.374 267.3 354.859C265.367 358.842 265.403 363.446 267.3 368.562C267.628 369.475 268.066 370.316 268.54 371.12C263.214 373.678 252.489 373.605 245.557 370.827H245.63ZM361.86 384.859C321.84 399.915 288.532 385.115 279.084 378.136C276.019 375.87 271.714 372.326 269.927 367.575C268.249 363.117 268.212 359.353 269.781 356.064C271.605 352.301 275.253 348.062 279.303 347.112C279.996 346.965 280.725 346.856 281.491 346.856C286.343 346.856 292.472 349.889 297.507 352.41C300.316 353.799 302.76 355.005 304.657 355.589C323.482 361.034 341.394 359.28 359.379 350.218L360.146 349.816C362.152 348.793 364.086 347.806 366.129 347.514C371.674 346.746 376.708 351.424 377.949 356.284C381.049 368.416 371.929 381.096 361.787 384.896L361.86 384.859ZM410.818 367.758C407.863 370.425 403.595 371.375 399.764 371.96C392.76 373.02 385.61 373.276 378.532 372.727C381.122 367.502 382.18 361.509 380.685 355.626C380.283 354.018 379.517 352.447 378.532 350.985C384.223 349.341 390.06 348.281 395.97 347.916C400.239 347.66 406.368 347.696 410.454 351.095C412.861 353.105 414.357 356.211 414.43 359.353C414.503 362.496 413.153 365.638 410.782 367.758H410.818Z" fill="#F3BF8B"/>
<path d="M408.52 363.227C404.58 367.502 398.159 369.329 392.578 367.758C392.103 367.612 391.593 367.904 391.447 368.379C391.301 368.854 391.593 369.366 392.067 369.512C393.563 369.914 395.095 370.133 396.664 370.133C401.589 370.133 406.514 368.087 409.87 364.469C410.198 364.104 410.198 363.519 409.833 363.19C409.469 362.861 408.885 362.861 408.557 363.227H408.52Z" fill="#F3BF8B"/>
<path d="M254.459 368.233C250.044 368.123 244.061 365.821 241.727 362.167C241.435 361.729 240.888 361.619 240.45 361.875C240.012 362.13 239.903 362.715 240.158 363.154C242.93 367.466 249.534 369.914 254.386 370.024C254.896 370.024 255.298 369.622 255.298 369.146C255.298 368.635 254.896 368.233 254.422 368.196L254.459 368.233Z" fill="#F3BF8B"/>
<path d="M325.014 386.394C317.207 386.394 309.728 385.517 303.271 383.727C302.541 383.544 302.104 382.777 302.322 382.046C302.505 381.315 303.271 380.913 304.001 381.096C316.587 384.531 333.149 384.531 348.289 381.023C349.019 380.84 349.748 381.315 349.931 382.046C350.113 382.777 349.639 383.507 348.909 383.69C341.102 385.481 332.894 386.394 325.05 386.394H325.014Z" fill="#F3BF8B"/>
<path d="M334.025 378.793C332.201 378.793 330.267 378.72 328.188 378.538C327.677 378.501 327.312 378.063 327.349 377.551C327.385 377.039 327.823 376.674 328.334 376.711C335.083 377.295 340.409 376.893 344.13 375.541C344.604 375.358 345.115 375.614 345.298 376.089C345.48 376.564 345.225 377.076 344.75 377.259C341.941 378.282 338.33 378.793 333.988 378.793H334.025Z" fill="#F3BF8B"/>
<path d="M366.895 356.613C364.888 356.028 362.444 357.234 361.276 358.951C359.963 360.888 359.671 362.898 360.583 365.054C361.495 367.21 363.867 368.781 366.201 368.489C366.931 368.416 369.412 367.977 371.017 365.565C372.148 363.848 372.33 358.184 366.931 356.613H366.895Z" fill="#F3BF8B"/>
<path d="M280.835 360.413C279.996 366.113 283.753 367.868 285.577 368.087C289.08 368.562 293.238 363.848 290.794 358.22C290.32 357.088 288.168 355.882 285.906 355.845C283.644 355.845 281.309 356.941 280.835 360.376V360.413Z" fill="#F3BF8B"/>
<path d="M395.569 355.517C394.256 356.722 393.709 358.44 393.891 360.084C394.11 361.692 395.387 363.263 397.284 363.702C398.962 364.104 400.859 363.519 401.99 362.386C403.121 361.254 403.413 359.682 403.084 358.257C402.318 354.822 396.992 354.274 395.606 355.517H395.569Z" fill="#F3BF8B"/>
<path d="M247.126 359.975C247.564 361.619 248.913 363.007 250.555 363.556C252.16 364.104 254.13 363.702 255.261 362.423C255.991 361.582 256.356 360.45 256.502 359.353C256.757 357.526 256.319 355.663 255.407 354.055C253.255 350.254 245.375 353.324 247.162 359.975H247.126Z" fill="#F3BF8B"/>
<path d="M548.098 389.72C548.098 389.72 548.062 389.72 548.025 389.72C547.259 389.72 546.676 389.062 546.712 388.294C547.369 372.362 547.296 356.247 546.457 340.388C546.42 339.621 547.004 338.999 547.734 338.963C548.463 338.89 549.12 339.511 549.156 340.242C549.995 356.211 550.068 372.435 549.412 388.441C549.412 389.171 548.792 389.756 548.062 389.756L548.098 389.72Z" fill="#F3BF8B"/>
<path d="M540.437 386.175C539.671 386.175 539.087 385.554 539.087 384.823L538.941 371.412C538.941 370.645 539.525 370.023 540.291 370.023C541.057 370.023 541.641 370.645 541.641 371.375L541.787 384.786C541.787 385.554 541.203 386.175 540.437 386.175Z" fill="#F3BF8B"/>
<path d="M104.191 392.314C103.425 392.314 102.841 391.693 102.841 390.962L102.477 339.548C102.477 338.78 103.097 338.159 103.826 338.159C104.592 338.159 105.176 338.78 105.176 339.511L105.541 390.926C105.541 391.693 104.957 392.314 104.191 392.314Z" fill="#F3BF8B"/>
<path d="M111.633 391.145C110.904 391.145 110.32 390.56 110.284 389.829C110.211 387.892 110.247 385.481 110.284 383.032C110.32 380.657 110.357 378.282 110.284 376.418C110.284 375.651 110.831 375.03 111.597 374.993C112.327 374.993 112.983 375.541 113.02 376.309C113.093 378.245 113.056 380.657 113.02 383.105C112.983 385.481 112.947 387.856 113.02 389.72C113.02 390.487 112.472 391.108 111.706 391.145C111.706 391.145 111.67 391.145 111.633 391.145Z" fill="#F3BF8B"/>
<path d="M162.416 398.161C161.686 398.161 161.066 397.576 161.066 396.809C161.066 396.041 161.65 395.42 162.416 395.42L201.305 394.653C202.071 394.653 202.691 395.238 202.691 396.005C202.691 396.772 202.108 397.393 201.341 397.393L162.452 398.161H162.416Z" fill="#F3BF8B"/>
<path d="M452.991 401.194C452.261 401.194 451.641 400.609 451.641 399.842C451.641 399.074 452.225 398.453 452.991 398.453L503.335 397.722C504.138 397.722 504.722 398.307 504.722 399.074C504.722 399.842 504.138 400.463 503.372 400.463L453.027 401.194H452.991Z" fill="#F3BF8B"/>
<path d="M186.895 392.862C186.165 392.862 185.545 392.278 185.545 391.547C185.545 390.78 186.092 390.158 186.858 390.122L199.59 389.574C200.283 389.501 200.977 390.122 201.013 390.889C201.013 391.657 200.466 392.278 199.7 392.314L186.968 392.862C186.968 392.862 186.931 392.862 186.895 392.862Z" fill="#F3BF8B"/>
<path d="M466.343 395.968H453.793C453.027 395.968 452.444 395.347 452.444 394.58C452.444 393.812 453.064 393.228 453.793 393.228H466.343C467.109 393.228 467.693 393.849 467.693 394.616C467.693 395.384 467.073 395.968 466.343 395.968Z" fill="#F3BF8B"/>
<path d="M342.634 330.193C337.636 330.193 332.675 330.12 327.786 330.047C319.87 329.937 311.698 329.791 303.672 330.01C302.87 330.083 302.286 329.426 302.286 328.658C302.286 327.891 302.87 327.27 303.636 327.27C311.735 327.087 319.943 327.197 327.859 327.306C335.776 327.416 343.984 327.525 352.01 327.343C352.74 327.343 353.36 327.927 353.36 328.695C353.36 329.462 352.776 330.083 352.01 330.083C348.873 330.156 345.735 330.193 342.598 330.193H342.634Z" fill="#F3BF8B"/>
<path d="M324.065 335.199C323.628 335.199 323.226 335.199 322.825 335.199C322.059 335.199 321.475 334.542 321.512 333.774C321.512 333.007 322.205 332.459 322.934 332.459C325.379 332.532 328.37 332.349 331.216 332.13C334.134 331.947 337.162 331.728 339.752 331.801C340.518 331.801 341.102 332.459 341.066 333.226C341.066 333.994 340.409 334.578 339.643 334.542C337.199 334.469 334.244 334.651 331.362 334.871C328.881 335.053 326.364 335.199 324.065 335.199Z" fill="#F3BF8B"/>
<path d="M483.125 346.856C479.622 346.856 477.725 346.563 476.886 345.796C474.843 343.896 475.427 325.735 475.427 325.552C475.427 324.784 476.12 324.236 476.85 324.236C477.616 324.236 478.2 324.931 478.163 325.661C477.871 331.435 478.2 341.74 478.82 343.75C480.425 344.298 487.393 343.969 491.625 343.75L493.449 343.677C493.449 343.677 493.631 343.677 493.741 343.677C494.179 341.484 494.872 332.86 494.835 326.356C494.835 325.588 495.455 324.967 496.185 324.967C496.951 324.967 497.535 325.588 497.571 326.319C497.571 326.502 497.352 344.371 495.711 345.723C494.981 346.308 494.106 346.344 493.595 346.381L491.771 346.454C488.159 346.636 485.313 346.746 483.125 346.746V346.856Z" fill="#F3BF8B"/>
<path d="M482.687 340.388C482.176 340.388 481.775 339.986 481.775 339.474L481.592 330.046L482.504 329.827L483.416 330.01L483.599 339.438C483.599 339.949 483.197 340.351 482.687 340.351V340.388Z" fill="#F3BF8B"/>
<path d="M486.444 337.245C485.934 337.245 485.532 336.807 485.569 336.295L485.715 330.595C485.715 330.083 486.153 329.754 486.663 329.718C487.174 329.718 487.575 330.156 487.539 330.668L487.393 336.368C487.393 336.88 486.992 337.245 486.481 337.245H486.444Z" fill="#F3BF8B"/>
<path d="M167.158 346.637C164.313 346.637 162.525 346.454 161.722 346.088C159.643 345.138 160.482 324.894 160.519 324.675C160.519 323.908 161.248 323.286 161.941 323.359C162.707 323.359 163.291 324.017 163.255 324.785C163.036 330.047 163.145 340.863 163.474 343.713C165.298 343.969 170.514 343.932 179.27 343.275C179.27 341.777 179.27 340.278 179.307 338.817C179.38 334.322 179.416 329.681 179.051 324.602C178.978 323.834 179.562 323.177 180.292 323.14C181.094 323.14 181.714 323.652 181.751 324.383C182.152 329.571 182.079 334.285 182.043 338.853C182.043 340.571 182.006 342.252 182.006 343.969C182.006 344.59 181.751 345.138 181.313 345.504C181.094 345.686 180.547 345.942 180.292 345.942C174.71 346.381 170.332 346.6 167.195 346.6L167.158 346.637Z" fill="#F3BF8B"/>
<path d="M174.856 339.255C174.381 339.255 173.98 338.89 173.944 338.378L173.506 329.206C173.506 328.695 173.871 328.293 174.381 328.256C174.892 328.183 175.293 328.621 175.33 329.133L175.768 338.305C175.768 338.817 175.403 339.219 174.892 339.255C174.892 339.255 174.892 339.255 174.856 339.255Z" fill="#F3BF8B"/>
<path d="M170.551 336.734C170.077 336.734 169.676 336.368 169.639 335.893C169.566 334.906 169.603 333.774 169.639 332.677C169.639 331.654 169.712 330.558 169.639 329.681C169.603 329.169 169.967 328.731 170.478 328.694C170.989 328.694 171.427 329.023 171.463 329.535C171.536 330.521 171.5 331.654 171.463 332.714C171.463 333.737 171.39 334.833 171.463 335.71C171.5 336.222 171.135 336.66 170.624 336.697C170.624 336.697 170.588 336.697 170.551 336.697V336.734Z" fill="#F3BF8B"/>
<path d="M156.068 146.277C155.338 146.277 154.718 145.693 154.718 144.925L153.295 84.3754C153.295 83.608 153.879 82.9868 154.645 82.9868C155.411 82.9868 156.032 83.5715 156.032 84.3389L157.454 144.889C157.454 145.656 156.871 146.277 156.104 146.277H156.068Z" fill="#F3BF8B"/>
<path d="M164.641 152.562C163.948 152.562 163.364 152.051 163.291 151.32C161.978 138.859 161.796 126.179 162.708 113.682C162.781 112.914 163.437 112.403 164.167 112.403C164.933 112.476 165.48 113.097 165.444 113.865C164.532 126.216 164.714 138.713 165.991 151.028C166.064 151.795 165.517 152.453 164.787 152.526C164.751 152.526 164.678 152.526 164.641 152.526V152.562Z" fill="#F3BF8B"/>
<path d="M516.031 165.169C515.265 165.169 514.681 164.548 514.681 163.817C514.681 156.363 514.864 148.872 515.046 141.636C515.411 127.239 515.776 112.33 514.499 96.8726C514.426 96.1053 515.01 95.4475 515.739 95.411C516.542 95.3379 517.162 95.9226 517.198 96.6534C518.512 112.257 518.111 127.239 517.746 141.71C517.563 148.908 517.381 156.363 517.381 163.817C517.381 164.585 516.761 165.206 516.031 165.206V165.169Z" fill="#F3BF8B"/>
<path d="M508.078 181.211C507.312 181.211 506.728 180.59 506.728 179.823C506.765 173.757 506.728 168.203 506.728 162.685C506.728 157.094 506.692 151.539 506.728 145.4C506.728 144.633 507.349 144.048 508.115 144.048C508.881 144.048 509.464 144.67 509.464 145.437C509.428 151.576 509.464 157.13 509.464 162.685C509.464 168.239 509.501 173.757 509.464 179.859C509.464 180.627 508.844 181.211 508.078 181.211Z" fill="#F3BF8B"/>
</g>
<defs>
<clipPath id="clip0_337_103">
<rect width="664" height="410" fill="white"/>
</clipPath>
</defs>
</svg>
